<svg width="45" height="45" viewBox="0 0 45 45" fill="none" xmlns="http://www.w3.org/2000/svg">
<path d="M28.4862 25.3002L28.3718 25.1521C27.0836 23.6184 27.0836 21.3797 28.3718 19.8461L28.4899 19.6923L44.3419 3.84359C45.2194 2.96613 45.2194 1.53744 44.3419 0.658098C43.4643 -0.219366 42.0355 -0.219366 41.158 0.658098L25.3004 16.5143L25.1542 16.6268C23.6204 17.9149 21.3815 17.9149 19.8477 16.6268L19.6996 16.5124L3.84391 0.659973C3.41827 0.234365 2.85199 0 2.25009 0C1.64819 0 1.0838 0.234365 0.658152 0.659973C-0.219384 1.53744 -0.219384 2.96613 0.658152 3.84359L16.5101 19.6942L16.6263 19.8461C17.9145 21.3797 17.9145 23.6184 16.6263 25.1521L16.5138 25.2983L0.658152 41.1545C-0.219384 42.032 -0.219384 43.4607 0.658152 44.34C1.0838 44.7656 1.64819 45 2.25009 45C2.85199 45 3.41639 44.7656 3.84204 44.34L19.6921 28.4913L19.8458 28.3732C21.3796 27.0851 23.6185 27.0851 25.1523 28.3732L25.3042 28.4894L41.1561 44.34C41.5817 44.7656 42.1461 45 42.748 45C43.3499 45 43.9143 44.7656 44.34 44.34C45.2175 43.4626 45.2175 42.0339 44.34 41.1545L28.4843 25.3002H28.4862Z" fill="black"/>
<path d="M24.6742 4.04796C24.6742 2.84782 23.7012 1.87492 22.5009 1.87492C21.3007 1.87492 20.3277 2.84782 20.3277 4.04796V10.9495C20.3277 12.1497 21.3007 13.1226 22.5009 13.1226C23.7012 13.1226 24.6742 12.1497 24.6742 10.9495V4.04796Z" fill="black"/>
<path d="M24.6742 34.0467C24.6742 32.8466 23.7012 31.8737 22.5009 31.8737C21.3007 31.8737 20.3277 32.8466 20.3277 34.0467V40.9483C20.3277 42.1484 21.3007 43.1213 22.5009 43.1213C23.7012 43.1213 24.6742 42.1484 24.6742 40.9483V34.0467Z" fill="black"/>
<path d="M40.9536 24.6721C42.1538 24.6721 43.1268 23.6992 43.1268 22.4991C43.1268 21.2989 42.1538 20.326 40.9536 20.326H34.0514C32.8512 20.326 31.8782 21.2989 31.8782 22.4991C31.8782 23.6992 32.8512 24.6721 34.0514 24.6721H40.9536Z" fill="black"/>
<path d="M10.9523 24.6721C12.1526 24.6721 13.1255 23.6992 13.1255 22.4991C13.1255 21.2989 12.1526 20.326 10.9523 20.326H4.05017C2.84994 20.326 1.87695 21.2989 1.87695 22.4991C1.87695 23.6992 2.84994 24.6721 4.05017 24.6721H10.9523Z" fill="black"/>
</svg>
