<?xml version="1.0" encoding="utf-8"?>
<svg width="45" height="45" viewBox="0 0 45 45" fill="none" xmlns="http://www.w3.org/2000/svg">
  <path d="M 26.184 24.655 L 26.101 24.547 C 25.165 23.433 25.165 21.808 26.101 20.694 L 26.186 20.582 L 37.699 9.072 C 38.336 8.435 38.336 7.397 37.699 6.758 C 37.062 6.121 36.024 6.121 35.387 6.758 L 23.87 18.274 L 23.764 18.356 C 22.65 19.291 21.024 19.291 19.91 18.356 L 19.802 18.273 L 8.287 6.76 C 7.978 6.451 7.567 6.28 7.13 6.28 C 6.692 6.28 6.282 6.451 5.973 6.76 C 5.336 7.397 5.336 8.435 5.973 9.072 L 17.486 20.583 L 17.57 20.694 C 18.506 21.808 18.506 23.433 17.57 24.547 L 17.489 24.653 L 5.973 36.169 C 5.336 36.806 5.336 37.844 5.973 38.483 C 6.282 38.792 6.692 38.962 7.13 38.962 C 7.567 38.962 7.977 38.792 8.286 38.483 L 19.797 26.972 L 19.909 26.887 C 21.022 25.951 22.649 25.951 23.762 26.887 L 23.873 26.971 L 35.385 38.483 C 35.694 38.792 36.104 38.962 36.541 38.962 C 36.979 38.962 37.389 38.792 37.698 38.483 C 38.335 37.845 38.335 36.808 37.698 36.169 L 26.182 24.655 L 26.184 24.655 Z" fill="black" style=""/>
  <path d="M 23.415 9.22 C 23.415 8.349 22.709 7.642 21.837 7.642 C 20.965 7.642 20.259 8.349 20.259 9.22 L 20.259 14.233 C 20.259 15.104 20.965 15.811 21.837 15.811 C 22.709 15.811 23.415 15.104 23.415 14.233 L 23.415 9.22 Z" fill="black" style=""/>
  <path d="M 23.415 31.007 C 23.415 30.135 22.709 29.429 21.837 29.429 C 20.965 29.429 20.259 30.135 20.259 31.007 L 20.259 36.019 C 20.259 36.891 20.965 37.598 21.837 37.598 C 22.709 37.598 23.415 36.891 23.415 36.019 L 23.415 31.007 Z" fill="black" style=""/>
  <path d="M 35.238 24.199 C 36.11 24.199 36.817 23.492 36.817 22.621 C 36.817 21.749 36.11 21.042 35.238 21.042 L 30.225 21.042 C 29.354 21.042 28.647 21.749 28.647 22.621 C 28.647 23.492 29.354 24.199 30.225 24.199 L 35.238 24.199 Z" fill="black" style=""/>
  <path d="M 13.45 24.199 C 14.321 24.199 15.028 23.492 15.028 22.621 C 15.028 21.749 14.321 21.042 13.45 21.042 L 8.437 21.042 C 7.565 21.042 6.859 21.749 6.859 22.621 C 6.859 23.492 7.565 24.199 8.437 24.199 L 13.45 24.199 Z" fill="black" style=""/>
</svg>