<svg width="176" height="142" viewBox="0 0 176 142" fill="none" xmlns="http://www.w3.org/2000/svg">
<path d="M35.5 53.5C35.5 43.85 43.35 36 53 36C62.65 36 70.5 28.15 70.5 18.5C70.5 8.85 62.65 1 53 1C43.35 1 35.5 8.85 35.5 18.5C35.5 28.15 27.65 36 18 36C8.35 36 0.5 43.85 0.5 53.5C0.5 63.15 8.35 71 18 71C27.65 71 35.5 63.15 35.5 53.5Z" fill="#F9FBFC" stroke="#0071F7" stroke-miterlimit="10"/>
<path d="M70.5 53.5C70.5 43.85 78.35 36 88 36C97.65 36 105.5 28.15 105.5 18.5C105.5 8.85 97.65 1 88 1C78.35 1 70.5 8.85 70.5 18.5C70.5 28.15 62.65 36 53 36C43.35 36 35.5 43.85 35.5 53.5C35.5 63.15 43.35 71 53 71C62.65 71 70.5 63.15 70.5 53.5Z" fill="#F9FBFC" stroke="#0071F7" stroke-miterlimit="10"/>
<path d="M105.5 53.5C105.5 43.85 113.35 36 123 36C132.65 36 140.5 28.15 140.5 18.5C140.5 8.85 132.65 1 123 1C113.35 1 105.5 8.85 105.5 18.5C105.5 28.15 97.65 36 88 36C78.35 36 70.5 43.85 70.5 53.5C70.5 63.15 78.35 71 88 71C97.65 71 105.5 63.15 105.5 53.5Z" fill="#F9FBFC" stroke="#0071F7" stroke-miterlimit="10"/>
<path d="M140.5 53.5C140.5 43.85 148.35 36 158 36C167.65 36 175.5 28.15 175.5 18.5C175.5 8.85 167.65 1 158 1C148.35 1 140.5 8.85 140.5 18.5C140.5 28.15 132.65 36 123 36C113.35 36 105.5 43.85 105.5 53.5C105.5 63.15 113.35 71 123 71C132.65 71 140.5 63.15 140.5 53.5Z" fill="#F9FBFC" stroke="#0071F7" stroke-miterlimit="10"/>
<path d="M35.5 88.5C35.5 78.85 43.35 71 53 71C62.65 71 70.5 63.15 70.5 53.5C70.5 43.85 62.65 36 53 36C43.35 36 35.5 43.85 35.5 53.5C35.5 63.15 27.65 71 18 71C8.35 71 0.5 78.85 0.5 88.5C0.5 98.15 8.35 106 18 106C27.65 106 35.5 98.15 35.5 88.5Z" fill="#F9FBFC" stroke="#0071F7" stroke-miterlimit="10"/>
<path d="M70.5 88.5C70.5 78.85 78.35 71 88 71C97.65 71 105.5 63.15 105.5 53.5C105.5 43.85 97.65 36 88 36C78.35 36 70.5 43.85 70.5 53.5C70.5 63.15 62.65 71 53 71C43.35 71 35.5 78.85 35.5 88.5C35.5 98.15 43.35 106 53 106C62.65 106 70.5 98.15 70.5 88.5Z" fill="#F9FBFC" stroke="#0071F7" stroke-miterlimit="10"/>
<path d="M105.5 88.5C105.5 78.85 113.35 71 123 71C132.65 71 140.5 63.15 140.5 53.5C140.5 43.85 132.65 36 123 36C113.35 36 105.5 43.85 105.5 53.5C105.5 63.15 97.65 71 88 71C78.35 71 70.5 78.85 70.5 88.5C70.5 98.15 78.35 106 88 106C97.65 106 105.5 98.15 105.5 88.5Z" fill="#F9FBFC" stroke="#0071F7" stroke-miterlimit="10"/>
<path d="M140.5 88.5C140.5 78.85 148.35 71 158 71C167.65 71 175.5 63.15 175.5 53.5C175.5 43.85 167.65 36 158 36C148.35 36 140.5 43.85 140.5 53.5C140.5 63.15 132.65 71 123 71C113.35 71 105.5 78.85 105.5 88.5C105.5 98.15 113.35 106 123 106C132.65 106 140.5 98.15 140.5 88.5Z" fill="#F9FBFC" stroke="#0071F7" stroke-miterlimit="10"/>
<path d="M35.5 123.5C35.5 113.85 43.35 106 53 106C62.65 106 70.5 98.15 70.5 88.5C70.5 78.85 62.65 71 53 71C43.35 71 35.5 78.85 35.5 88.5C35.5 98.15 27.65 106 18 106C8.35 106 0.5 113.85 0.5 123.5C0.5 133.15 8.35 141 18 141C27.65 141 35.5 133.15 35.5 123.5Z" fill="#F9FBFC" stroke="#0071F7" stroke-miterlimit="10"/>
<path d="M70.5 123.5C70.5 113.85 78.35 106 88 106C97.65 106 105.5 98.15 105.5 88.5C105.5 78.85 97.65 71 88 71C78.35 71 70.5 78.85 70.5 88.5C70.5 98.15 62.65 106 53 106C43.35 106 35.5 113.85 35.5 123.5C35.5 133.15 43.35 141 53 141C62.65 141 70.5 133.15 70.5 123.5Z" fill="#F9FBFC" stroke="#0071F7" stroke-miterlimit="10"/>
<path d="M105.5 123.5C105.5 113.85 113.35 106 123 106C132.65 106 140.5 98.15 140.5 88.5C140.5 78.85 132.65 71 123 71C113.35 71 105.5 78.85 105.5 88.5C105.5 98.15 97.65 106 88 106C78.35 106 70.5 113.85 70.5 123.5C70.5 133.15 78.35 141 88 141C97.65 141 105.5 133.15 105.5 123.5Z" fill="#F9FBFC" stroke="#0071F7" stroke-miterlimit="10"/>
<path d="M140.5 123.5C140.5 113.85 148.35 106 158 106C167.65 106 175.5 98.15 175.5 88.5C175.5 78.85 167.65 71 158 71C148.35 71 140.5 78.85 140.5 88.5C140.5 98.15 132.65 106 123 106C113.35 106 105.5 113.85 105.5 123.5C105.5 133.15 113.35 141 123 141C132.65 141 140.5 133.15 140.5 123.5Z" fill="#F9FBFC" stroke="#0071F7" stroke-miterlimit="10"/>
<path d="M175.5 123.5C175.5 113.835 167.665 106 158 106C148.335 106 140.5 113.835 140.5 123.5C140.5 133.165 148.335 141 158 141C167.665 141 175.5 133.165 175.5 123.5Z" fill="black" stroke="black" stroke-miterlimit="10"/>
</svg>
