<svg width="142" height="142" viewBox="0 0 142 142" fill="none" xmlns="http://www.w3.org/2000/svg">
<mask id="mask0_4171_672" style="mask-type:luminance" maskUnits="userSpaceOnUse" x="1" y="1" width="140" height="140">
<path d="M141 1H1V141H141V1Z" fill="white"/>
</mask>
<g mask="url(#mask0_4171_672)">
<path d="M161.518 109.806C154.387 102.675 142.793 102.675 135.662 109.806C128.531 116.938 116.937 116.938 109.805 109.806C102.674 102.675 91.0805 102.675 83.9493 109.806C76.818 116.938 65.2242 116.938 58.093 109.806C50.9617 102.675 39.368 102.675 32.2367 109.806C25.1054 116.938 13.5118 116.938 6.38051 109.806C-0.750738 102.675 -12.3445 102.675 -19.4758 109.806C-26.607 116.938 -26.607 128.531 -19.4758 135.663C-12.3445 142.794 -0.750738 142.794 6.38051 135.663C13.5118 128.531 25.1054 128.531 32.2367 135.663C39.368 142.794 50.9617 142.794 58.093 135.663C65.2242 128.531 76.818 128.531 83.9493 135.663C91.0805 142.794 102.674 142.794 109.805 135.663C116.937 128.531 128.531 128.531 135.662 135.663C142.793 142.794 154.387 142.794 161.518 135.663C168.649 128.531 168.649 116.938 161.518 109.806Z" fill="#F9FBFC" stroke="#0071F7" stroke-miterlimit="10"/>
<path d="M161.518 58.0501C154.387 50.9188 142.793 50.9188 135.662 58.0501C128.531 65.1813 116.937 65.1813 109.805 58.0501C102.674 50.9188 91.0805 50.9188 83.9493 58.0501C76.818 65.1813 65.2242 65.1813 58.093 58.0501C50.9617 50.9188 39.368 50.9188 32.2367 58.0501C25.1054 65.1813 13.5118 65.1813 6.38051 58.0501C-0.750738 50.9188 -12.3445 50.9188 -19.4758 58.0501C-26.607 65.1813 -26.607 76.7751 -19.4758 83.9063C-12.3445 91.0376 -0.750738 91.0376 6.38051 83.9063C13.5118 76.7751 25.1054 76.7751 32.2367 83.9063C39.368 91.0376 50.9617 91.0376 58.093 83.9063C65.2242 76.7751 76.818 76.7751 83.9493 83.9063C91.0805 91.0376 102.674 91.0376 109.805 83.9063C116.937 76.7751 128.531 76.7751 135.662 83.9063C142.793 91.0376 154.387 91.0376 161.518 83.9063C168.649 76.7751 168.649 65.1813 161.518 58.0501Z" fill="#F9FBFC" stroke="#0071F7" stroke-miterlimit="10"/>
<path d="M161.518 6.33769C154.387 -0.793554 142.793 -0.793554 135.662 6.33769C128.531 13.4689 116.937 13.4689 109.805 6.33769C102.674 -0.793554 91.0805 -0.793554 83.9493 6.33769C76.818 13.4689 65.2242 13.4689 58.093 6.33769C50.9617 -0.793554 39.368 -0.793554 32.2367 6.33769C25.1055 13.4689 13.5118 13.4689 6.38051 6.33769C-0.75074 -0.793554 -12.3445 -0.793554 -19.4758 6.33769C-26.607 13.4689 -26.607 25.0627 -19.4758 32.1939C-12.3445 39.3252 -0.75074 39.3252 6.38051 32.1939C13.5118 25.0627 25.1055 25.0627 32.2367 32.1939C39.368 39.3252 50.9617 39.3252 58.093 32.1939C65.2242 25.0627 76.818 25.0627 83.9493 32.1939C91.0805 39.3252 102.674 39.3252 109.805 32.1939C116.937 25.0627 128.531 25.0627 135.662 32.1939C142.793 39.3252 154.387 39.3252 161.518 32.1939C168.649 25.0627 168.649 13.4689 161.518 6.33769Z" fill="#F9FBFC" stroke="#0071F7" stroke-miterlimit="10"/>
</g>
<path d="M141 1H1V141H141V1Z" stroke="#0071F7" stroke-miterlimit="10"/>
<path d="M83.9508 83.9501C76.8196 76.8189 76.8196 65.2251 83.9508 58.0938C91.0821 50.9626 91.0821 39.3688 83.9508 32.2376C76.8196 25.1063 65.2258 25.1063 58.0945 32.2376C50.9633 39.3688 50.9633 50.9626 58.0945 58.0938C65.2258 65.2251 65.2258 76.8189 58.0945 83.9501C50.9633 91.0814 50.9633 102.675 58.0945 109.806C65.2258 116.938 76.8196 116.938 83.9508 109.806C91.0821 102.675 91.0821 91.0814 83.9508 83.9501Z" fill="black" stroke="black" stroke-width="0.21875" stroke-miterlimit="10"/>
</svg>
