<svg width="464" height="381" viewBox="0 0 464 381" fill="none" xmlns="http://www.w3.org/2000/svg">
<g clip-path="url(#clip0_4171_602)">
<rect width="464" height="381" rx="10" fill="#F7FAFE"/>
<rect x="24" y="24" width="416" height="207" rx="5" fill="#EAF3FD"/>
<path d="M249.5 154.25C249.5 149.438 245.562 145.5 240.75 145.5H232H223.25C218.438 145.5 214.5 149.438 214.5 154.25V171.75C214.5 176.562 218.438 180.5 223.25 180.5C228.062 180.5 232 184.438 232 189.25C232 194.062 235.938 198 240.75 198C245.562 198 249.5 194.062 249.5 189.25C249.5 184.438 253.438 180.5 258.25 180.5C263.062 180.5 267 176.562 267 171.75C267 166.938 263.062 163 258.25 163C253.438 163 249.5 159.062 249.5 154.25Z" fill="#F9FBFC" stroke="#0071F7" stroke-miterlimit="10"/>
<path d="M179.5 58H170.75C165.938 58 162 61.9375 162 66.75C162 71.5625 165.938 75.5 170.75 75.5C175.562 75.5 179.5 79.4375 179.5 84.25C179.5 89.0625 183.438 93 188.25 93C193.062 93 197 89.0625 197 84.25V75.5V66.75C197 61.9375 193.062 58 188.25 58H179.5Z" fill="#F9FBFC" stroke="#0071F7" stroke-miterlimit="10"/>
<path d="M284.5 58H275.75C270.938 58 267 61.9375 267 66.75C267 71.5625 270.938 75.5 275.75 75.5C280.562 75.5 284.5 79.4375 284.5 84.25C284.5 89.0625 288.438 93 293.25 93C298.062 93 302 89.0625 302 84.25V75.5V66.75C302 61.9375 298.062 58 293.25 58H284.5Z" fill="#F9FBFC" stroke="#0071F7" stroke-miterlimit="10"/>
<path d="M302 180.5V171.75C302 166.938 298.062 163 293.25 163C288.438 163 284.5 166.938 284.5 171.75C284.5 176.562 280.562 180.5 275.75 180.5C270.938 180.5 267 184.438 267 189.25C267 194.062 270.938 198 275.75 198H284.5H293.25C298.062 198 302 194.062 302 189.25V180.5Z" fill="#F9FBFC" stroke="#0071F7" stroke-miterlimit="10"/>
<path d="M205.75 180.5C200.938 180.5 197 176.562 197 171.75V154.25C197 149.438 193.062 145.5 188.25 145.5C183.438 145.5 179.5 149.438 179.5 154.25C179.5 159.062 175.562 163 170.75 163C165.938 163 162 166.938 162 171.75V189.25C162 194.062 165.938 198 170.75 198H205.75C210.562 198 214.5 194.062 214.5 189.25C214.5 184.438 210.562 180.5 205.75 180.5Z" fill="#F9FBFC" stroke="#0071F7" stroke-miterlimit="10"/>
<path d="M284.5 101.75C284.5 96.9375 280.562 93 275.75 93C270.938 93 267 96.9375 267 101.75V119.25C267 124.062 263.062 128 258.25 128C253.438 128 249.5 131.938 249.5 136.75C249.5 141.562 253.438 145.5 258.25 145.5C263.062 145.5 267 149.438 267 154.25C267 159.062 270.938 163 275.75 163C280.562 163 284.5 159.062 284.5 154.25C284.5 149.438 288.438 145.5 293.25 145.5C298.062 145.5 302 141.562 302 136.75V128V119.25C302 114.438 298.062 110.5 293.25 110.5C288.438 110.5 284.5 106.562 284.5 101.75Z" fill="#F9FBFC" stroke="#0071F7" stroke-miterlimit="10"/>
<path d="M249.5 75.5H240.75C235.938 75.5 232 71.5625 232 66.75C232 61.9375 228.062 58 223.25 58C218.438 58 214.5 61.9375 214.5 66.75V93V101.75C214.5 106.562 218.438 110.5 223.25 110.5H240.75C245.562 110.5 249.5 106.562 249.5 101.75C249.5 96.9375 253.438 93 258.25 93C263.062 93 267 89.0625 267 84.25C267 79.4375 263.062 75.5 258.25 75.5H249.5Z" fill="#F9FBFC" stroke="#0071F7" stroke-miterlimit="10"/>
<path d="M197 110.5H188.25C183.438 110.5 179.5 106.562 179.5 101.75C179.5 96.9375 175.562 93 170.75 93C165.938 93 162 96.9375 162 101.75V136.75C162 141.562 165.938 145.5 170.75 145.5C175.562 145.5 179.5 141.562 179.5 136.75C179.5 131.938 183.438 128 188.25 128C193.062 128 197 131.938 197 136.75C197 141.562 200.938 145.5 205.75 145.5C210.562 145.5 214.5 141.562 214.5 136.75V119.25C214.5 114.438 210.562 110.5 205.75 110.5H197Z" fill="#F9FBFC" stroke="#0071F7" stroke-miterlimit="10"/>
<path d="M214.5 189.25C214.5 184.438 218.438 180.5 223.25 180.5C228.062 180.5 232 176.562 232 171.75C232 166.938 228.062 163 223.25 163C218.438 163 214.5 166.938 214.5 171.75C214.5 176.562 210.562 180.5 205.75 180.5C200.938 180.5 197 184.438 197 189.25C197 194.062 200.938 198 205.75 198C210.562 198 214.5 194.062 214.5 189.25Z" fill="black" stroke="black" stroke-miterlimit="10"/>
<path d="M188.25 145.5C183.438 145.5 179.5 141.562 179.5 136.75C179.5 131.938 175.562 128 170.75 128C165.938 128 162 131.938 162 136.75C162 141.562 165.938 145.5 170.75 145.5C175.562 145.5 179.5 149.438 179.5 154.25C179.5 159.062 183.438 163 188.25 163C193.062 163 197 159.062 197 154.25C197 149.438 193.062 145.5 188.25 145.5Z" fill="black" stroke="black" stroke-miterlimit="10"/>
<path d="M179.5 84.25C179.5 89.0625 175.562 93 170.75 93C165.938 93 162 96.9375 162 101.75C162 106.562 165.938 110.5 170.75 110.5C175.562 110.5 179.5 106.562 179.5 101.75C179.5 96.9375 183.438 93 188.25 93C193.062 93 197 89.0625 197 84.25C197 79.4375 193.062 75.5 188.25 75.5C183.438 75.5 179.5 79.4375 179.5 84.25Z" fill="black" stroke="black" stroke-miterlimit="10"/>
<path d="M214.5 119.25C214.5 114.438 218.438 110.5 223.25 110.5C228.062 110.5 232 106.562 232 101.75C232 96.9375 228.062 93 223.25 93C218.438 93 214.5 96.9375 214.5 101.75C214.5 106.562 210.562 110.5 205.75 110.5C200.938 110.5 197 114.438 197 119.25C197 124.062 200.938 128 205.75 128C210.562 128 214.5 124.062 214.5 119.25Z" fill="black" stroke="black" stroke-miterlimit="10"/>
<path d="M267 154.25C267 159.062 263.062 163 258.25 163C253.438 163 249.5 166.938 249.5 171.75C249.5 176.562 253.438 180.5 258.25 180.5C263.062 180.5 267 176.562 267 171.75C267 166.938 270.938 163 275.75 163C280.562 163 284.5 159.062 284.5 154.25C284.5 149.438 280.562 145.5 275.75 145.5C270.938 145.5 267 149.438 267 154.25Z" fill="black" stroke="black" stroke-miterlimit="10"/>
<path d="M284.5 101.75C284.5 96.9375 288.438 93 293.25 93C298.062 93 302 89.0625 302 84.25C302 79.4375 298.062 75.5 293.25 75.5C288.438 75.5 284.5 79.4375 284.5 84.25C284.5 89.0625 280.562 93 275.75 93C270.938 93 267 96.9375 267 101.75C267 106.562 270.938 110.5 275.75 110.5C280.562 110.5 284.5 106.562 284.5 101.75Z" fill="black" stroke="black" stroke-miterlimit="10"/>
<path d="M31.4414 243.087H33.7485V250.169C33.7485 250.965 33.5581 251.664 33.1772 252.264C32.8013 252.86 32.2739 253.324 31.5952 253.656C30.9165 253.988 30.1255 254.154 29.2222 254.154C28.3188 254.154 27.5278 253.988 26.8491 253.656C26.1704 253.324 25.6431 252.86 25.2671 252.264C24.8911 251.664 24.7031 250.965 24.7031 250.169V243.087H27.0029V249.979C27.0029 250.394 27.0957 250.765 27.2812 251.092C27.4668 251.415 27.7256 251.668 28.0576 251.854C28.3896 252.035 28.7778 252.125 29.2222 252.125C29.6714 252.125 30.062 252.035 30.394 251.854C30.7261 251.668 30.9824 251.415 31.1631 251.092C31.3486 250.765 31.4414 250.394 31.4414 249.979V243.087ZM37.3887 249.269V254H35.1255V245.812H37.3521V247.269H37.4326C37.6182 246.786 37.9136 246.405 38.3188 246.126C38.7241 245.848 39.2319 245.709 39.8423 245.709C40.4087 245.709 40.9019 245.833 41.3218 246.083C41.7466 246.332 42.0762 246.686 42.3105 247.145C42.5449 247.604 42.6621 248.153 42.6621 248.792V254H40.3989V249.195C40.3989 248.697 40.2695 248.307 40.0107 248.023C39.752 247.735 39.3955 247.591 38.9414 247.591C38.6387 247.591 38.3701 247.66 38.1357 247.796C37.9014 247.928 37.7183 248.119 37.5864 248.368C37.4546 248.617 37.3887 248.917 37.3887 249.269ZM44.0024 254V245.812H46.2656V254H44.0024ZM45.1304 244.764C44.7935 244.764 44.5054 244.652 44.2661 244.427C44.0269 244.203 43.9072 243.932 43.9072 243.614C43.9072 243.297 44.0269 243.028 44.2661 242.809C44.5054 242.584 44.7935 242.472 45.1304 242.472C45.4722 242.472 45.7627 242.584 46.002 242.809C46.2412 243.028 46.3608 243.297 46.3608 243.614C46.3608 243.932 46.2412 244.203 46.002 244.427C45.7627 244.652 45.4722 244.764 45.1304 244.764ZM52.0298 245.812V247.525H46.9834V245.812H52.0298ZM48.1406 254V245.218C48.1406 244.627 48.2554 244.137 48.4849 243.746C48.7192 243.355 49.0366 243.062 49.437 242.867C49.8423 242.672 50.3013 242.574 50.814 242.574C51.1655 242.574 51.4854 242.604 51.7734 242.662C52.0664 242.716 52.2812 242.762 52.418 242.801L52.0225 244.5C51.9297 244.476 51.8198 244.452 51.6929 244.427C51.5659 244.403 51.4316 244.391 51.29 244.391C50.958 244.391 50.7261 244.469 50.5942 244.625C50.4624 244.776 50.3965 244.991 50.3965 245.27V254H48.1406ZM52.938 254V245.812H55.2012V254H52.938ZM54.0659 244.764C53.729 244.764 53.4409 244.652 53.2017 244.427C52.9624 244.203 52.8428 243.932 52.8428 243.614C52.8428 243.297 52.9624 243.028 53.2017 242.809C53.4409 242.584 53.729 242.472 54.0659 242.472C54.4077 242.472 54.6982 242.584 54.9375 242.809C55.1768 243.028 55.2964 243.297 55.2964 243.614C55.2964 243.932 55.1768 244.203 54.9375 244.427C54.6982 244.652 54.4077 244.764 54.0659 244.764ZM60.2695 254.161C59.4297 254.161 58.7046 253.99 58.0942 253.648C57.4839 253.307 57.0151 252.821 56.688 252.191C56.3657 251.556 56.2046 250.807 56.2046 249.942C56.2046 249.103 56.3657 248.365 56.688 247.73C57.0151 247.096 57.4741 246.6 58.0649 246.244C58.6606 245.887 59.3589 245.709 60.1597 245.709C60.7017 245.709 61.207 245.797 61.6758 245.973C62.1445 246.144 62.5547 246.402 62.9062 246.749C63.2578 247.091 63.5312 247.523 63.7266 248.045C63.9219 248.563 64.0195 249.171 64.0195 249.869V250.484H57.1055V249.085H62.9209L61.8662 249.452C61.8662 249.037 61.8027 248.675 61.6758 248.368C61.5488 248.06 61.3584 247.823 61.1045 247.657C60.8555 247.486 60.5454 247.401 60.1743 247.401C59.8032 247.401 59.4883 247.486 59.2295 247.657C58.9756 247.828 58.7803 248.06 58.6436 248.353C58.5068 248.646 58.4385 248.983 58.4385 249.364V250.353C58.4385 250.797 58.5166 251.178 58.6729 251.495C58.8291 251.808 59.0464 252.049 59.3247 252.22C59.6079 252.386 59.9326 252.469 60.2988 252.469C60.5527 252.469 60.7822 252.433 60.9873 252.359C61.1924 252.286 61.3682 252.179 61.5146 252.037C61.666 251.896 61.7783 251.725 61.8516 251.524L63.9463 251.664C63.8438 252.167 63.6289 252.606 63.3018 252.982C62.9795 253.353 62.562 253.644 62.0493 253.854C61.5366 254.059 60.9434 254.161 60.2695 254.161ZM67.9819 254.132C67.3569 254.132 66.793 253.971 66.29 253.648C65.7871 253.326 65.3892 252.853 65.0962 252.228C64.8032 251.598 64.6567 250.829 64.6567 249.92C64.6567 248.983 64.8081 248.202 65.1108 247.577C65.4136 246.952 65.8164 246.485 66.3193 246.178C66.8223 245.865 67.3716 245.709 67.9673 245.709C68.4263 245.709 68.8096 245.787 69.1172 245.943C69.4248 246.095 69.6738 246.285 69.8643 246.515C70.0547 246.744 70.1987 246.971 70.2964 247.196H70.3623V243.087H72.6328V254H70.3989V252.689H70.2964C70.1938 252.914 70.0449 253.138 69.8496 253.363C69.6543 253.583 69.4028 253.766 69.0952 253.912C68.7925 254.059 68.4214 254.132 67.9819 254.132ZM68.6924 252.33C69.0586 252.33 69.3687 252.23 69.6226 252.03C69.8813 251.825 70.0767 251.542 70.2085 251.18C70.3452 250.819 70.4136 250.396 70.4136 249.913C70.4136 249.425 70.3477 249.002 70.2158 248.646C70.084 248.285 69.8887 248.006 69.6299 247.811C69.3711 247.611 69.0586 247.511 68.6924 247.511C68.3213 247.511 68.0088 247.613 67.7549 247.818C67.501 248.023 67.3081 248.307 67.1763 248.668C67.0444 249.024 66.9785 249.439 66.9785 249.913C66.9785 250.387 67.0444 250.807 67.1763 251.173C67.3081 251.534 67.501 251.817 67.7549 252.022C68.0137 252.228 68.3262 252.33 68.6924 252.33ZM81.5977 254.132C81.1582 254.132 80.7847 254.059 80.4771 253.912C80.1694 253.766 79.918 253.583 79.7227 253.363C79.5322 253.138 79.3833 252.914 79.2759 252.689H79.1733V254H76.9468V243.087H79.21V247.196H79.2759C79.3784 246.971 79.5249 246.744 79.7153 246.515C79.9058 246.285 80.1548 246.095 80.4624 245.943C80.77 245.787 81.1509 245.709 81.605 245.709C82.2056 245.709 82.7549 245.865 83.2529 246.178C83.7559 246.485 84.1587 246.952 84.4614 247.577C84.7642 248.202 84.9155 248.983 84.9155 249.92C84.9155 250.829 84.769 251.598 84.4761 252.228C84.1831 252.853 83.7852 253.326 83.2822 253.648C82.7842 253.971 82.2227 254.132 81.5977 254.132ZM80.8799 252.33C81.251 252.33 81.5635 252.228 81.8174 252.022C82.0713 251.817 82.2642 251.534 82.396 251.173C82.5278 250.807 82.5938 250.387 82.5938 249.913C82.5938 249.439 82.5278 249.024 82.396 248.668C82.269 248.307 82.0786 248.023 81.8247 247.818C81.5708 247.613 81.2559 247.511 80.8799 247.511C80.5137 247.511 80.2012 247.611 79.9424 247.811C79.6885 248.006 79.4932 248.285 79.3564 248.646C79.2246 249.002 79.1587 249.425 79.1587 249.913C79.1587 250.396 79.2271 250.819 79.3638 251.18C79.5005 251.542 79.6958 251.825 79.9497 252.03C80.2085 252.23 80.5186 252.33 80.8799 252.33ZM85.9116 254V245.812H88.1016V247.247H88.1895C88.3408 246.739 88.5923 246.356 88.9438 246.097C89.2954 245.833 89.6982 245.702 90.1523 245.702C90.2695 245.702 90.3916 245.709 90.5186 245.724C90.6504 245.733 90.7676 245.753 90.8701 245.782V247.789C90.7627 247.755 90.6138 247.728 90.4233 247.708C90.2378 247.684 90.0645 247.672 89.9033 247.672C89.5762 247.672 89.2808 247.745 89.0171 247.892C88.7534 248.033 88.5459 248.233 88.3945 248.492C88.248 248.746 88.1748 249.039 88.1748 249.371V254H85.9116ZM91.5513 254V245.812H93.8145V254H91.5513ZM92.6792 244.764C92.3423 244.764 92.0542 244.652 91.8149 244.427C91.5757 244.203 91.4561 243.932 91.4561 243.614C91.4561 243.297 91.5757 243.028 91.8149 242.809C92.0542 242.584 92.3423 242.472 92.6792 242.472C93.021 242.472 93.3115 242.584 93.5508 242.809C93.79 243.028 93.9097 243.297 93.9097 243.614C93.9097 243.932 93.79 244.203 93.5508 244.427C93.3115 244.652 93.021 244.764 92.6792 244.764ZM98.1431 254.132C97.5181 254.132 96.9541 253.971 96.4512 253.648C95.9482 253.326 95.5503 252.853 95.2573 252.228C94.9644 251.598 94.8179 250.829 94.8179 249.92C94.8179 248.983 94.9692 248.202 95.272 247.577C95.5747 246.952 95.9775 246.485 96.4805 246.178C96.9834 245.865 97.5327 245.709 98.1284 245.709C98.5874 245.709 98.9707 245.787 99.2783 245.943C99.5859 246.095 99.835 246.285 100.025 246.515C100.216 246.744 100.36 246.971 100.458 247.196H100.523V243.087H102.794V254H100.56V252.689H100.458C100.355 252.914 100.206 253.138 100.011 253.363C99.8154 253.583 99.564 253.766 99.2563 253.912C98.9536 254.059 98.5825 254.132 98.1431 254.132ZM98.8535 252.33C99.2197 252.33 99.5298 252.23 99.7837 252.03C100.042 251.825 100.238 251.542 100.37 251.18C100.506 250.819 100.575 250.396 100.575 249.913C100.575 249.425 100.509 249.002 100.377 248.646C100.245 248.285 100.05 248.006 99.791 247.811C99.5322 247.611 99.2197 247.511 98.8535 247.511C98.4824 247.511 98.1699 247.613 97.916 247.818C97.6621 248.023 97.4692 248.307 97.3374 248.668C97.2056 249.024 97.1396 249.439 97.1396 249.913C97.1396 250.387 97.2056 250.807 97.3374 251.173C97.4692 251.534 97.6621 251.817 97.916 252.022C98.1748 252.228 98.4873 252.33 98.8535 252.33ZM107.782 257.237C106.678 257.237 105.814 257.018 105.189 256.578C104.564 256.144 104.183 255.602 104.046 254.952L106.141 254.674C106.205 254.84 106.305 254.994 106.441 255.135C106.578 255.277 106.761 255.389 106.991 255.472C107.22 255.56 107.501 255.604 107.833 255.604C108.326 255.604 108.734 255.484 109.056 255.245C109.378 255.011 109.54 254.613 109.54 254.051V252.55H109.444C109.347 252.774 109.198 252.989 108.998 253.194C108.797 253.399 108.541 253.565 108.229 253.692C107.916 253.819 107.542 253.883 107.108 253.883C106.493 253.883 105.934 253.741 105.431 253.458C104.933 253.17 104.532 252.73 104.229 252.14C103.932 251.549 103.783 250.802 103.783 249.898C103.783 248.966 103.934 248.189 104.237 247.569C104.544 246.949 104.95 246.485 105.453 246.178C105.956 245.865 106.507 245.709 107.108 245.709C107.567 245.709 107.95 245.787 108.258 245.943C108.57 246.095 108.824 246.285 109.02 246.515C109.215 246.744 109.361 246.971 109.459 247.196H109.547V245.812H111.781V254.088C111.781 254.781 111.61 255.362 111.268 255.831C110.926 256.3 110.455 256.651 109.854 256.886C109.254 257.12 108.563 257.237 107.782 257.237ZM107.826 252.176C108.373 252.176 108.795 251.974 109.093 251.568C109.396 251.163 109.547 250.602 109.547 249.884C109.547 249.405 109.479 248.99 109.342 248.639C109.21 248.282 109.017 248.006 108.763 247.811C108.509 247.611 108.197 247.511 107.826 247.511C107.455 247.511 107.14 247.613 106.881 247.818C106.627 248.019 106.434 248.297 106.302 248.653C106.17 249.01 106.104 249.42 106.104 249.884C106.104 250.353 106.17 250.76 106.302 251.107C106.434 251.449 106.627 251.712 106.881 251.898C107.14 252.083 107.455 252.176 107.826 252.176ZM116.842 254.161C116.002 254.161 115.277 253.99 114.667 253.648C114.056 253.307 113.587 252.821 113.26 252.191C112.938 251.556 112.777 250.807 112.777 249.942C112.777 249.103 112.938 248.365 113.26 247.73C113.587 247.096 114.046 246.6 114.637 246.244C115.233 245.887 115.931 245.709 116.732 245.709C117.274 245.709 117.779 245.797 118.248 245.973C118.717 246.144 119.127 246.402 119.479 246.749C119.83 247.091 120.104 247.523 120.299 248.045C120.494 248.563 120.592 249.171 120.592 249.869V250.484H113.678V249.085H119.493L118.438 249.452C118.438 249.037 118.375 248.675 118.248 248.368C118.121 248.06 117.931 247.823 117.677 247.657C117.428 247.486 117.118 247.401 116.747 247.401C116.375 247.401 116.061 247.486 115.802 247.657C115.548 247.828 115.353 248.06 115.216 248.353C115.079 248.646 115.011 248.983 115.011 249.364V250.353C115.011 250.797 115.089 251.178 115.245 251.495C115.401 251.808 115.619 252.049 115.897 252.22C116.18 252.386 116.505 252.469 116.871 252.469C117.125 252.469 117.354 252.433 117.56 252.359C117.765 252.286 117.94 252.179 118.087 252.037C118.238 251.896 118.351 251.725 118.424 251.524L120.519 251.664C120.416 252.167 120.201 252.606 119.874 252.982C119.552 253.353 119.134 253.644 118.622 253.854C118.109 254.059 117.516 254.161 116.842 254.161ZM127.542 254.132C126.917 254.132 126.354 253.971 125.851 253.648C125.348 253.326 124.95 252.853 124.657 252.228C124.364 251.598 124.217 250.829 124.217 249.92C124.217 248.983 124.369 248.202 124.671 247.577C124.974 246.952 125.377 246.485 125.88 246.178C126.383 245.865 126.932 245.709 127.528 245.709C127.987 245.709 128.37 245.787 128.678 245.943C128.985 246.095 129.234 246.285 129.425 246.515C129.615 246.744 129.759 246.971 129.857 247.196H129.923V243.087H132.193V254H129.959V252.689H129.857C129.754 252.914 129.605 253.138 129.41 253.363C129.215 253.583 128.963 253.766 128.656 253.912C128.353 254.059 127.982 254.132 127.542 254.132ZM128.253 252.33C128.619 252.33 128.929 252.23 129.183 252.03C129.442 251.825 129.637 251.542 129.769 251.18C129.906 250.819 129.974 250.396 129.974 249.913C129.974 249.425 129.908 249.002 129.776 248.646C129.645 248.285 129.449 248.006 129.19 247.811C128.932 247.611 128.619 247.511 128.253 247.511C127.882 247.511 127.569 247.613 127.315 247.818C127.062 248.023 126.869 248.307 126.737 248.668C126.605 249.024 126.539 249.439 126.539 249.913C126.539 250.387 126.605 250.807 126.737 251.173C126.869 251.534 127.062 251.817 127.315 252.022C127.574 252.228 127.887 252.33 128.253 252.33ZM137.247 254.161C136.407 254.161 135.682 253.99 135.072 253.648C134.461 253.307 133.993 252.821 133.666 252.191C133.343 251.556 133.182 250.807 133.182 249.942C133.182 249.103 133.343 248.365 133.666 247.73C133.993 247.096 134.452 246.6 135.042 246.244C135.638 245.887 136.336 245.709 137.137 245.709C137.679 245.709 138.185 245.797 138.653 245.973C139.122 246.144 139.532 246.402 139.884 246.749C140.235 247.091 140.509 247.523 140.704 248.045C140.899 248.563 140.997 249.171 140.997 249.869V250.484H134.083V249.085H139.898L138.844 249.452C138.844 249.037 138.78 248.675 138.653 248.368C138.526 248.06 138.336 247.823 138.082 247.657C137.833 247.486 137.523 247.401 137.152 247.401C136.781 247.401 136.466 247.486 136.207 247.657C135.953 247.828 135.758 248.06 135.621 248.353C135.484 248.646 135.416 248.983 135.416 249.364V250.353C135.416 250.797 135.494 251.178 135.65 251.495C135.807 251.808 136.024 252.049 136.302 252.22C136.585 252.386 136.91 252.469 137.276 252.469C137.53 252.469 137.76 252.433 137.965 252.359C138.17 252.286 138.346 252.179 138.492 252.037C138.644 251.896 138.756 251.725 138.829 251.524L140.924 251.664C140.821 252.167 140.606 252.606 140.279 252.982C139.957 253.353 139.54 253.644 139.027 253.854C138.514 254.059 137.921 254.161 137.247 254.161ZM145.699 254.161C144.859 254.161 144.134 253.99 143.524 253.648C142.914 253.307 142.445 252.821 142.118 252.191C141.795 251.556 141.634 250.807 141.634 249.942C141.634 249.103 141.795 248.365 142.118 247.73C142.445 247.096 142.904 246.6 143.495 246.244C144.09 245.887 144.789 245.709 145.589 245.709C146.131 245.709 146.637 245.797 147.105 245.973C147.574 246.144 147.984 246.402 148.336 246.749C148.688 247.091 148.961 247.523 149.156 248.045C149.352 248.563 149.449 249.171 149.449 249.869V250.484H142.535V249.085H148.351L147.296 249.452C147.296 249.037 147.232 248.675 147.105 248.368C146.979 248.06 146.788 247.823 146.534 247.657C146.285 247.486 145.975 247.401 145.604 247.401C145.233 247.401 144.918 247.486 144.659 247.657C144.405 247.828 144.21 248.06 144.073 248.353C143.937 248.646 143.868 248.983 143.868 249.364V250.353C143.868 250.797 143.946 251.178 144.103 251.495C144.259 251.808 144.476 252.049 144.754 252.22C145.038 252.386 145.362 252.469 145.729 252.469C145.982 252.469 146.212 252.433 146.417 252.359C146.622 252.286 146.798 252.179 146.944 252.037C147.096 251.896 147.208 251.725 147.281 251.524L149.376 251.664C149.273 252.167 149.059 252.606 148.731 252.982C148.409 253.353 147.992 253.644 147.479 253.854C146.966 254.059 146.373 254.161 145.699 254.161ZM150.423 257.062V245.812H152.65V247.196H152.752C152.855 246.971 153.001 246.744 153.192 246.515C153.382 246.285 153.631 246.095 153.939 245.943C154.247 245.787 154.627 245.709 155.082 245.709C155.682 245.709 156.231 245.865 156.729 246.178C157.232 246.485 157.635 246.952 157.938 247.577C158.241 248.202 158.392 248.983 158.392 249.92C158.392 250.829 158.246 251.598 157.953 252.228C157.66 252.853 157.262 253.326 156.759 253.648C156.261 253.971 155.699 254.132 155.074 254.132C154.635 254.132 154.261 254.059 153.954 253.912C153.646 253.766 153.395 253.583 153.199 253.363C153.009 253.138 152.86 252.914 152.752 252.689H152.687V257.062H150.423ZM154.356 252.33C154.728 252.33 155.04 252.228 155.294 252.022C155.548 251.817 155.741 251.534 155.873 251.173C156.004 250.807 156.07 250.387 156.07 249.913C156.07 249.439 156.004 249.024 155.873 248.668C155.746 248.307 155.555 248.023 155.301 247.818C155.047 247.613 154.732 247.511 154.356 247.511C153.99 247.511 153.678 247.611 153.419 247.811C153.165 248.006 152.97 248.285 152.833 248.646C152.701 249.002 152.635 249.425 152.635 249.913C152.635 250.396 152.704 250.819 152.84 251.18C152.977 251.542 153.172 251.825 153.426 252.03C153.685 252.23 153.995 252.33 154.356 252.33ZM165.365 254.132C164.74 254.132 164.176 253.971 163.673 253.648C163.17 253.326 162.772 252.853 162.479 252.228C162.186 251.598 162.04 250.829 162.04 249.92C162.04 248.983 162.191 248.202 162.494 247.577C162.796 246.952 163.199 246.485 163.702 246.178C164.205 245.865 164.754 245.709 165.35 245.709C165.809 245.709 166.192 245.787 166.5 245.943C166.808 246.095 167.057 246.285 167.247 246.515C167.438 246.744 167.582 246.971 167.679 247.196H167.745V243.087H170.016V254H167.782V252.689H167.679C167.577 252.914 167.428 253.138 167.232 253.363C167.037 253.583 166.786 253.766 166.478 253.912C166.175 254.059 165.804 254.132 165.365 254.132ZM166.075 252.33C166.441 252.33 166.751 252.23 167.005 252.03C167.264 251.825 167.459 251.542 167.591 251.18C167.728 250.819 167.796 250.396 167.796 249.913C167.796 249.425 167.73 249.002 167.599 248.646C167.467 248.285 167.271 248.006 167.013 247.811C166.754 247.611 166.441 247.511 166.075 247.511C165.704 247.511 165.392 247.613 165.138 247.818C164.884 248.023 164.691 248.307 164.559 248.668C164.427 249.024 164.361 249.439 164.361 249.913C164.361 250.387 164.427 250.807 164.559 251.173C164.691 251.534 164.884 251.817 165.138 252.022C165.396 252.228 165.709 252.33 166.075 252.33ZM171.341 254V245.812H173.604V254H171.341ZM172.469 244.764C172.132 244.764 171.844 244.652 171.605 244.427C171.366 244.203 171.246 243.932 171.246 243.614C171.246 243.297 171.366 243.028 171.605 242.809C171.844 242.584 172.132 242.472 172.469 242.472C172.811 242.472 173.102 242.584 173.341 242.809C173.58 243.028 173.7 243.297 173.7 243.614C173.7 243.932 173.58 244.203 173.341 244.427C173.102 244.652 172.811 244.764 172.469 244.764ZM182.562 245.812L179.706 254H177.142L174.293 245.812H176.688L178.409 251.678H178.497L180.189 245.812H182.562ZM186.715 254.161C185.875 254.161 185.15 253.99 184.54 253.648C183.929 253.307 183.46 252.821 183.133 252.191C182.811 251.556 182.65 250.807 182.65 249.942C182.65 249.103 182.811 248.365 183.133 247.73C183.46 247.096 183.919 246.6 184.51 246.244C185.106 245.887 185.804 245.709 186.605 245.709C187.147 245.709 187.652 245.797 188.121 245.973C188.59 246.144 189 246.402 189.352 246.749C189.703 247.091 189.977 247.523 190.172 248.045C190.367 248.563 190.465 249.171 190.465 249.869V250.484H183.551V249.085H189.366L188.312 249.452C188.312 249.037 188.248 248.675 188.121 248.368C187.994 248.06 187.804 247.823 187.55 247.657C187.301 247.486 186.991 247.401 186.62 247.401C186.249 247.401 185.934 247.486 185.675 247.657C185.421 247.828 185.226 248.06 185.089 248.353C184.952 248.646 184.884 248.983 184.884 249.364V250.353C184.884 250.797 184.962 251.178 185.118 251.495C185.274 251.808 185.492 252.049 185.77 252.22C186.053 252.386 186.378 252.469 186.744 252.469C186.998 252.469 187.228 252.433 187.433 252.359C187.638 252.286 187.813 252.179 187.96 252.037C188.111 251.896 188.224 251.725 188.297 251.524L190.392 251.664C190.289 252.167 190.074 252.606 189.747 252.982C189.425 253.353 189.007 253.644 188.495 253.854C187.982 254.059 187.389 254.161 186.715 254.161Z" fill="#002E65" fill-opacity="0.9"/>
<g clip-path="url(#clip1_4171_602)">
<path d="M386.999 245V249L384.332 250.333" stroke="#0044FF" stroke-linecap="round" stroke-linejoin="round"/>
<path d="M386.999 255.667C390.681 255.667 393.665 252.682 393.665 249C393.665 245.318 390.681 242.333 386.999 242.333C383.317 242.333 380.332 245.318 380.332 249C380.332 252.682 383.317 255.667 386.999 255.667Z" stroke="#0044FF" stroke-linecap="round" stroke-linejoin="round"/>
</g>
<path d="M401.903 253.5V252.733L404.784 249.58C405.122 249.21 405.401 248.889 405.619 248.616C405.838 248.341 406 248.082 406.105 247.841C406.213 247.597 406.267 247.341 406.267 247.074C406.267 246.767 406.193 246.501 406.045 246.277C405.901 246.053 405.702 245.879 405.449 245.757C405.196 245.635 404.912 245.574 404.597 245.574C404.261 245.574 403.969 245.643 403.719 245.783C403.472 245.919 403.28 246.111 403.143 246.358C403.01 246.605 402.943 246.895 402.943 247.227H401.938C401.938 246.716 402.055 246.267 402.291 245.881C402.527 245.494 402.848 245.193 403.254 244.977C403.663 244.761 404.122 244.653 404.631 244.653C405.142 244.653 405.595 244.761 405.99 244.977C406.385 245.193 406.695 245.484 406.919 245.851C407.143 246.217 407.256 246.625 407.256 247.074C407.256 247.395 407.197 247.709 407.081 248.016C406.967 248.32 406.768 248.659 406.484 249.034C406.203 249.406 405.812 249.861 405.312 250.398L403.352 252.494V252.562H407.409V253.5H401.903ZM412.016 253.619C411.374 253.619 410.827 253.445 410.375 253.095C409.923 252.743 409.578 252.233 409.339 251.565C409.101 250.895 408.982 250.085 408.982 249.136C408.982 248.193 409.101 247.388 409.339 246.72C409.581 246.05 409.928 245.538 410.379 245.186C410.834 244.831 411.379 244.653 412.016 244.653C412.652 244.653 413.196 244.831 413.648 245.186C414.102 245.538 414.449 246.05 414.688 246.72C414.929 247.388 415.05 248.193 415.05 249.136C415.05 250.085 414.93 250.895 414.692 251.565C414.453 252.233 414.108 252.743 413.656 253.095C413.205 253.445 412.658 253.619 412.016 253.619ZM412.016 252.682C412.652 252.682 413.146 252.375 413.499 251.761C413.851 251.148 414.027 250.273 414.027 249.136C414.027 248.381 413.946 247.737 413.784 247.206C413.625 246.675 413.395 246.27 413.094 245.991C412.795 245.713 412.436 245.574 412.016 245.574C411.385 245.574 410.892 245.885 410.537 246.507C410.182 247.126 410.004 248.003 410.004 249.136C410.004 249.892 410.084 250.534 410.243 251.062C410.402 251.591 410.631 251.993 410.929 252.268C411.23 252.544 411.592 252.682 412.016 252.682ZM420.061 253.5V246.955H421.033V247.977H421.118C421.254 247.628 421.474 247.357 421.778 247.163C422.082 246.967 422.447 246.869 422.874 246.869C423.305 246.869 423.665 246.967 423.952 247.163C424.241 247.357 424.467 247.628 424.629 247.977H424.697C424.865 247.639 425.116 247.371 425.452 247.172C425.787 246.97 426.189 246.869 426.658 246.869C427.243 246.869 427.722 247.053 428.094 247.419C428.466 247.783 428.652 248.349 428.652 249.119V253.5H427.646V249.119C427.646 248.636 427.514 248.291 427.25 248.084C426.986 247.876 426.675 247.773 426.317 247.773C425.857 247.773 425.5 247.912 425.247 248.19C424.994 248.466 424.868 248.815 424.868 249.239V253.5H423.845V249.017C423.845 248.645 423.724 248.345 423.483 248.118C423.241 247.888 422.93 247.773 422.55 247.773C422.288 247.773 422.044 247.842 421.817 247.982C421.592 248.121 421.411 248.314 421.271 248.561C421.135 248.805 421.067 249.088 421.067 249.409V253.5H420.061ZM430.491 253.5V246.955H431.496V253.5H430.491ZM431.002 245.864C430.806 245.864 430.637 245.797 430.495 245.663C430.356 245.53 430.286 245.369 430.286 245.182C430.286 244.994 430.356 244.834 430.495 244.7C430.637 244.567 430.806 244.5 431.002 244.5C431.198 244.5 431.366 244.567 431.505 244.7C431.647 244.834 431.718 244.994 431.718 245.182C431.718 245.369 431.647 245.53 431.505 245.663C431.366 245.797 431.198 245.864 431.002 245.864ZM434.344 249.562V253.5H433.338V246.955H434.31V247.977H434.395C434.549 247.645 434.782 247.378 435.094 247.176C435.407 246.972 435.81 246.869 436.304 246.869C436.748 246.869 437.135 246.96 437.468 247.142C437.8 247.321 438.059 247.594 438.243 247.96C438.428 248.324 438.52 248.784 438.52 249.341V253.5H437.515V249.409C437.515 248.895 437.381 248.494 437.114 248.207C436.847 247.918 436.48 247.773 436.015 247.773C435.694 247.773 435.407 247.842 435.154 247.982C434.904 248.121 434.706 248.324 434.561 248.591C434.417 248.858 434.344 249.182 434.344 249.562Z" fill="#0044FF"/>
<path d="M27.9023 281.197C29.0273 281.197 29.7422 280.523 29.7715 279.434H30.8145C30.8145 281.068 29.6309 282.176 27.9023 282.176C25.916 282.176 24.7617 280.834 24.7617 278.525V277.02C24.7617 274.711 25.916 273.369 27.9023 273.369C29.6836 273.369 30.7852 274.453 30.8203 276.258H29.7715C29.7363 275.115 28.9805 274.348 27.8965 274.348C26.5312 274.348 25.8164 275.268 25.8164 277.02V278.525C25.8164 280.277 26.5312 281.197 27.9023 281.197ZM35.127 282.117C33.4453 282.117 32.373 281.021 32.373 279.305V278.344C32.373 276.627 33.4453 275.531 35.127 275.531C36.8086 275.531 37.8809 276.627 37.8809 278.344V279.305C37.8809 281.021 36.8086 282.117 35.127 282.117ZM35.127 276.41C34.0371 276.41 33.3574 277.184 33.3574 278.432V279.211C33.3574 280.465 34.0371 281.232 35.127 281.232C36.2168 281.232 36.8965 280.465 36.8965 279.211V278.432C36.8965 277.184 36.2168 276.41 35.127 276.41ZM45.6094 277.318V282H44.7129V277.611C44.7129 276.838 44.4316 276.434 43.8984 276.434C43.3418 276.434 43.002 276.92 43.002 277.711V282H42.1113V277.605C42.1113 276.838 41.8301 276.434 41.291 276.434C40.7285 276.434 40.377 276.92 40.377 277.711V282H39.4805V275.643H40.3711V276.539H40.4766C40.6348 275.9 41.0918 275.525 41.6895 275.525C42.2871 275.525 42.709 275.895 42.8438 276.521H42.9492C43.1133 275.912 43.623 275.525 44.2617 275.525C45.1465 275.525 45.6094 276.141 45.6094 277.318ZM50.3613 275.537C51.832 275.537 52.793 276.598 52.793 278.232V279.416C52.793 281.045 51.832 282.105 50.3613 282.105C49.4414 282.105 48.7676 281.713 48.4922 281.016H48.3809V284.145H47.3672V275.643H48.3516V276.615H48.457C48.791 275.912 49.4531 275.537 50.3613 275.537ZM50.0742 276.451C49.0254 276.451 48.3574 277.201 48.3574 278.373V279.287C48.3574 280.465 49.0254 281.215 50.0742 281.215C51.123 281.215 51.791 280.459 51.791 279.287V278.373C51.791 277.201 51.123 276.451 50.0742 276.451ZM60.1582 282H54.8906V281.174H57.0645V273.973H54.9082V273.146H58.0605V281.174H60.1582V282ZM66.5156 280.359H67.4824C67.2891 281.408 66.2812 282.117 64.9453 282.117C63.1992 282.117 62.1855 281.068 62.1855 279.258V278.303C62.1855 276.627 63.2578 275.525 64.875 275.525C66.5273 275.525 67.5 276.621 67.5 278.461V279.082H63.1699V279.34C63.1699 280.506 63.8613 281.256 64.9453 281.256C65.748 281.256 66.3398 280.916 66.5156 280.359ZM64.8691 276.381C63.8086 276.381 63.1699 277.107 63.1699 278.326H66.5156C66.5156 277.113 65.8945 276.381 64.8691 276.381ZM71.1328 273.938H72.1172V275.66H74.6953V276.51H72.1289V280.096C72.1289 280.787 72.6152 281.162 73.5117 281.162C73.8691 281.162 74.5078 281.145 74.6777 281.127V281.971C74.5195 282 73.7461 282.029 73.4414 282.029C71.8652 282.029 71.1328 281.432 71.1328 280.107V276.51H69.4395V275.66H71.1328V273.938ZM81.3516 280.359H82.3184C82.125 281.408 81.1172 282.117 79.7812 282.117C78.0352 282.117 77.0215 281.068 77.0215 279.258V278.303C77.0215 276.627 78.0938 275.525 79.7109 275.525C81.3633 275.525 82.3359 276.621 82.3359 278.461V279.082H78.0059V279.34C78.0059 280.506 78.6973 281.256 79.7812 281.256C80.584 281.256 81.1758 280.916 81.3516 280.359ZM79.7051 276.381C78.6445 276.381 78.0059 277.107 78.0059 278.326H81.3516C81.3516 277.113 80.7305 276.381 79.7051 276.381ZM97.9043 275.643L96.5391 282H95.584L94.5059 277.043H94.4355L93.3574 282H92.4023L91.0371 275.643H92.0098L92.8711 280.74H92.9766L94.002 275.648H94.9395L95.9648 280.74H96.0703L96.9316 275.643H97.9043ZM101.244 282.111C100.031 282.111 99.2227 281.35 99.2227 280.195C99.2227 279.07 100.031 278.402 101.479 278.326L103.225 278.238V277.664C103.225 276.867 102.738 276.428 101.854 276.428C101.121 276.428 100.605 276.738 100.441 277.283H99.4629C99.5801 276.264 100.564 275.566 101.865 275.566C103.359 275.566 104.215 276.328 104.215 277.652V282.006H103.266V281.051H103.166C102.861 281.73 102.17 282.111 101.244 282.111ZM101.531 281.238C102.492 281.238 103.225 280.6 103.225 279.75V279L101.59 279.076C100.699 279.117 100.23 279.498 100.23 280.16C100.23 280.828 100.729 281.238 101.531 281.238ZM112.084 282H106.816V281.174H108.99V273.973H106.834V273.146H109.986V281.174H112.084V282ZM115.664 278.496L118.436 275.643H119.643L117.176 278.162L119.818 282H118.635L116.467 278.842L115.588 279.686V282H114.592V273.146H115.588V278.496H115.664ZM123.059 273.938H124.043V275.66H126.621V276.51H124.055V280.096C124.055 280.787 124.541 281.162 125.438 281.162C125.795 281.162 126.434 281.145 126.604 281.127V281.971C126.445 282 125.672 282.029 125.367 282.029C123.791 282.029 123.059 281.432 123.059 280.107V276.51H121.365V275.66H123.059V273.938ZM128.953 282V273.146H129.914V276.768H129.996C130.33 275.977 131.062 275.531 132.035 275.531C133.418 275.531 134.168 276.363 134.168 277.881V282H133.172V278.133C133.172 276.99 132.703 276.445 131.707 276.445C130.658 276.445 129.949 277.178 129.949 278.262V282H128.953ZM138.727 279.152V281.203H140.695V282H136.471V281.203H137.754V276.439H136.342V275.643H138.715V277.266H138.844C139.078 276.088 139.869 275.479 141.094 275.479C141.457 275.479 141.803 275.531 142.014 275.619V276.738C141.721 276.633 141.311 276.562 140.965 276.562C139.559 276.562 138.727 277.535 138.727 279.152ZM146.396 282.117C144.715 282.117 143.643 281.021 143.643 279.305V278.344C143.643 276.627 144.715 275.531 146.396 275.531C148.078 275.531 149.15 276.627 149.15 278.344V279.305C149.15 281.021 148.078 282.117 146.396 282.117ZM146.396 276.41C145.307 276.41 144.627 277.184 144.627 278.432V279.211C144.627 280.465 145.307 281.232 146.396 281.232C147.486 281.232 148.166 280.465 148.166 279.211V278.432C148.166 277.184 147.486 276.41 146.396 276.41ZM156.416 275.643V282H155.461V280.881H155.379C155.039 281.672 154.312 282.117 153.346 282.117C151.963 282.117 151.213 281.291 151.213 279.768V275.643H152.209V279.516C152.209 280.664 152.678 281.203 153.668 281.203C154.717 281.203 155.42 280.471 155.42 279.387V275.643H156.416ZM161.045 284.385C159.574 284.385 158.59 283.74 158.461 282.686H159.445C159.574 283.213 160.213 283.559 161.062 283.559C162.176 283.559 162.791 282.996 162.791 281.977V280.986H162.686C162.404 281.654 161.701 282.059 160.775 282.059C159.305 282.059 158.338 280.998 158.338 279.369V278.227C158.338 276.592 159.311 275.537 160.799 275.537C161.719 275.537 162.416 275.941 162.691 276.627H162.803V275.643H163.787V282C163.787 283.494 162.768 284.385 161.045 284.385ZM159.34 279.229C159.34 280.395 160.02 281.156 161.074 281.156C162.123 281.156 162.797 280.4 162.797 279.229V278.355C162.797 277.184 162.123 276.434 161.074 276.434C160.02 276.434 159.34 277.189 159.34 278.355V279.229ZM166.043 282V273.146H167.004V276.768H167.086C167.42 275.977 168.152 275.531 169.125 275.531C170.508 275.531 171.258 276.363 171.258 277.881V282H170.262V278.133C170.262 276.99 169.793 276.445 168.797 276.445C167.748 276.445 167.039 277.178 167.039 278.262V282H166.043ZM183.486 282.117C181.805 282.117 180.732 281.021 180.732 279.305V278.344C180.732 276.627 181.805 275.531 183.486 275.531C185.168 275.531 186.24 276.627 186.24 278.344V279.305C186.24 281.021 185.168 282.117 183.486 282.117ZM183.486 276.41C182.396 276.41 181.717 277.184 181.717 278.432V279.211C181.717 280.465 182.396 281.232 183.486 281.232C184.576 281.232 185.256 280.465 185.256 279.211V278.432C185.256 277.184 184.576 276.41 183.486 276.41ZM189.967 282V276.51H188.262V275.66H189.967V275.021C189.967 273.791 190.729 273.217 192.293 273.217C192.662 273.217 193.547 273.246 193.758 273.275V274.09C193.482 274.061 192.662 274.037 192.305 274.037C191.42 274.037 190.951 274.365 190.951 275.004V275.66H193.758V276.51H190.963V282H189.967ZM207.926 282L207.193 279.574H204.252L203.514 282H202.465L205.189 273.545H206.291L209.016 282H207.926ZM205.711 274.787L204.521 278.689H206.924L205.74 274.787H205.711ZM212.971 284.385C211.5 284.385 210.516 283.74 210.387 282.686H211.371C211.5 283.213 212.139 283.559 212.988 283.559C214.102 283.559 214.717 282.996 214.717 281.977V280.986H214.611C214.33 281.654 213.627 282.059 212.701 282.059C211.23 282.059 210.264 280.998 210.264 279.369V278.227C210.264 276.592 211.236 275.537 212.725 275.537C213.645 275.537 214.342 275.941 214.617 276.627H214.729V275.643H215.713V282C215.713 283.494 214.693 284.385 212.971 284.385ZM211.266 279.229C211.266 280.395 211.945 281.156 213 281.156C214.049 281.156 214.723 280.4 214.723 279.229V278.355C214.723 277.184 214.049 276.434 213 276.434C211.945 276.434 211.266 277.189 211.266 278.355V279.229ZM220.389 284.385C218.918 284.385 217.934 283.74 217.805 282.686H218.789C218.918 283.213 219.557 283.559 220.406 283.559C221.52 283.559 222.135 282.996 222.135 281.977V280.986H222.029C221.748 281.654 221.045 282.059 220.119 282.059C218.648 282.059 217.682 280.998 217.682 279.369V278.227C217.682 276.592 218.654 275.537 220.143 275.537C221.062 275.537 221.76 275.941 222.035 276.627H222.146V275.643H223.131V282C223.131 283.494 222.111 284.385 220.389 284.385ZM218.684 279.229C218.684 280.395 219.363 281.156 220.418 281.156C221.467 281.156 222.141 280.4 222.141 279.229V278.355C222.141 277.184 221.467 276.434 220.418 276.434C219.363 276.434 218.684 277.189 218.684 278.355V279.229ZM230.771 282H225.504V281.174H227.678V273.973H225.521V273.146H228.674V281.174H230.771V282ZM234.768 282.111C233.555 282.111 232.746 281.35 232.746 280.195C232.746 279.07 233.555 278.402 235.002 278.326L236.748 278.238V277.664C236.748 276.867 236.262 276.428 235.377 276.428C234.645 276.428 234.129 276.738 233.965 277.283H232.986C233.104 276.264 234.088 275.566 235.389 275.566C236.883 275.566 237.738 276.328 237.738 277.652V282.006H236.789V281.051H236.689C236.385 281.73 235.693 282.111 234.768 282.111ZM235.055 281.238C236.016 281.238 236.748 280.6 236.748 279.75V279L235.113 279.076C234.223 279.117 233.754 279.498 233.754 280.16C233.754 280.828 234.252 281.238 235.055 281.238ZM241.049 284.262C240.902 284.262 240.709 284.256 240.621 284.244V283.371C240.697 283.389 240.879 283.395 240.973 283.395C241.57 283.395 241.898 283.125 242.162 282.387L242.273 282.041L239.936 275.643H241.02L242.801 280.963H242.877L244.652 275.643H245.713L243.316 282.234C242.76 283.799 242.227 284.262 241.049 284.262ZM251.965 280.359H252.932C252.738 281.408 251.73 282.117 250.395 282.117C248.648 282.117 247.635 281.068 247.635 279.258V278.303C247.635 276.627 248.707 275.525 250.324 275.525C251.977 275.525 252.949 276.621 252.949 278.461V279.082H248.619V279.34C248.619 280.506 249.311 281.256 250.395 281.256C251.197 281.256 251.789 280.916 251.965 280.359ZM250.318 276.381C249.258 276.381 248.619 277.107 248.619 278.326H251.965C251.965 277.113 251.344 276.381 250.318 276.381ZM257.414 279.152V281.203H259.383V282H255.158V281.203H256.441V276.439H255.029V275.643H257.402V277.266H257.531C257.766 276.088 258.557 275.479 259.781 275.479C260.145 275.479 260.49 275.531 260.701 275.619V276.738C260.408 276.633 259.998 276.562 259.652 276.562C258.246 276.562 257.414 277.535 257.414 279.152ZM27.0645 300.111C25.8516 300.111 25.043 299.35 25.043 298.195C25.043 297.07 25.8516 296.402 27.2988 296.326L29.0449 296.238V295.664C29.0449 294.867 28.5586 294.428 27.6738 294.428C26.9414 294.428 26.4258 294.738 26.2617 295.283H25.2832C25.4004 294.264 26.3848 293.566 27.6855 293.566C29.1797 293.566 30.0352 294.328 30.0352 295.652V300.006H29.0859V299.051H28.9863C28.6816 299.73 27.9902 300.111 27.0645 300.111ZM27.3516 299.238C28.3125 299.238 29.0449 298.6 29.0449 297.75V297L27.4102 297.076C26.5195 297.117 26.0508 297.498 26.0508 298.16C26.0508 298.828 26.5488 299.238 27.3516 299.238ZM34.875 297.152V299.203H36.8438V300H32.6191V299.203H33.9023V294.439H32.4902V293.643H34.8633V295.266H34.9922C35.2266 294.088 36.0176 293.479 37.2422 293.479C37.6055 293.479 37.9512 293.531 38.1621 293.619V294.738C37.8691 294.633 37.459 294.562 37.1133 294.562C35.707 294.562 34.875 295.535 34.875 297.152ZM45.1934 295.623H44.209C44.0859 294.879 43.4648 294.41 42.6445 294.41C41.5371 294.41 40.9219 295.166 40.9219 296.531V297.105C40.9219 298.471 41.5371 299.221 42.6445 299.221C43.4648 299.221 44.0859 298.758 44.209 298.031H45.1934C45.0352 299.326 44.0684 300.117 42.6621 300.117C40.9336 300.117 39.9258 299.057 39.9258 297.234V296.402C39.9258 294.58 40.9336 293.52 42.6621 293.52C44.0684 293.52 45.0293 294.316 45.1934 295.623ZM47.3555 300V291.146H48.3164V294.768H48.3984C48.7324 293.977 49.4648 293.531 50.4375 293.531C51.8203 293.531 52.5703 294.363 52.5703 295.881V300H51.5742V296.133C51.5742 294.99 51.1055 294.445 50.1094 294.445C49.0605 294.445 48.3516 295.178 48.3516 296.262V300H47.3555ZM57.4922 292.084C57.0234 292.084 56.666 291.732 56.666 291.264C56.666 290.801 57.0234 290.449 57.4922 290.449C57.9609 290.449 58.3184 290.801 58.3184 291.264C58.3184 291.732 57.9609 292.084 57.4922 292.084ZM60.1582 300H54.8906V299.174H57.0703V294.469H54.9082V293.643H58.0547V299.174H60.1582V300ZM63.7148 291.938H64.6992V293.66H67.2773V294.51H64.7109V298.096C64.7109 298.787 65.1973 299.162 66.0938 299.162C66.4512 299.162 67.0898 299.145 67.2598 299.127V299.971C67.1016 300 66.3281 300.029 66.0234 300.029C64.4473 300.029 63.7148 299.432 63.7148 298.107V294.51H62.0215V293.66H63.7148V291.938ZM73.9336 298.359H74.9004C74.707 299.408 73.6992 300.117 72.3633 300.117C70.6172 300.117 69.6035 299.068 69.6035 297.258V296.303C69.6035 294.627 70.6758 293.525 72.293 293.525C73.9453 293.525 74.918 294.621 74.918 296.461V297.082H70.5879V297.34C70.5879 298.506 71.2793 299.256 72.3633 299.256C73.166 299.256 73.7578 298.916 73.9336 298.359ZM72.2871 294.381C71.2266 294.381 70.5879 295.107 70.5879 296.326H73.9336C73.9336 295.113 73.3125 294.381 72.2871 294.381ZM82.2832 295.623H81.2988C81.1758 294.879 80.5547 294.41 79.7344 294.41C78.627 294.41 78.0117 295.166 78.0117 296.531V297.105C78.0117 298.471 78.627 299.221 79.7344 299.221C80.5547 299.221 81.1758 298.758 81.2988 298.031H82.2832C82.125 299.326 81.1582 300.117 79.752 300.117C78.0234 300.117 77.0156 299.057 77.0156 297.234V296.402C77.0156 294.58 78.0234 293.52 79.752 293.52C81.1582 293.52 82.1191 294.316 82.2832 295.623ZM85.9688 291.938H86.9531V293.66H89.5312V294.51H86.9648V298.096C86.9648 298.787 87.4512 299.162 88.3477 299.162C88.7051 299.162 89.3438 299.145 89.5137 299.127V299.971C89.3555 300 88.582 300.029 88.2773 300.029C86.7012 300.029 85.9688 299.432 85.9688 298.107V294.51H84.2754V293.66H85.9688V291.938ZM97.0723 293.643V300H96.1172V298.881H96.0352C95.6953 299.672 94.9688 300.117 94.002 300.117C92.6191 300.117 91.8691 299.291 91.8691 297.768V293.643H92.8652V297.516C92.8652 298.664 93.334 299.203 94.3242 299.203C95.373 299.203 96.0762 298.471 96.0762 297.387V293.643H97.0723ZM101.637 297.152V299.203H103.605V300H99.3809V299.203H100.664V294.439H99.252V293.643H101.625V295.266H101.754C101.988 294.088 102.779 293.479 104.004 293.479C104.367 293.479 104.713 293.531 104.924 293.619V294.738C104.631 294.633 104.221 294.562 103.875 294.562C102.469 294.562 101.637 295.535 101.637 297.152ZM111.023 298.359H111.99C111.797 299.408 110.789 300.117 109.453 300.117C107.707 300.117 106.693 299.068 106.693 297.258V296.303C106.693 294.627 107.766 293.525 109.383 293.525C111.035 293.525 112.008 294.621 112.008 296.461V297.082H107.678V297.34C107.678 298.506 108.369 299.256 109.453 299.256C110.256 299.256 110.848 298.916 111.023 298.359ZM109.377 294.381C108.316 294.381 107.678 295.107 107.678 296.326H111.023C111.023 295.113 110.402 294.381 109.377 294.381ZM123.498 300.111C122.285 300.111 121.477 299.35 121.477 298.195C121.477 297.07 122.285 296.402 123.732 296.326L125.479 296.238V295.664C125.479 294.867 124.992 294.428 124.107 294.428C123.375 294.428 122.859 294.738 122.695 295.283H121.717C121.834 294.264 122.818 293.566 124.119 293.566C125.613 293.566 126.469 294.328 126.469 295.652V300.006H125.52V299.051H125.42C125.115 299.73 124.424 300.111 123.498 300.111ZM123.785 299.238C124.746 299.238 125.479 298.6 125.479 297.75V297L123.844 297.076C122.953 297.117 122.484 297.498 122.484 298.16C122.484 298.828 122.982 299.238 123.785 299.238ZM128.959 300V293.643H129.914V294.762H129.996C130.336 293.971 131.062 293.525 132.029 293.525C133.412 293.525 134.162 294.352 134.162 295.875V300H133.166V296.127C133.166 294.979 132.697 294.439 131.707 294.439C130.658 294.439 129.955 295.172 129.955 296.256V300H128.959ZM138.58 300.105C137.109 300.105 136.148 299.045 136.148 297.41V296.227C136.148 294.598 137.109 293.537 138.58 293.537C139.5 293.537 140.18 293.93 140.455 294.627H140.561V291.146H141.574V300H140.596V299.027H140.484C140.156 299.73 139.488 300.105 138.58 300.105ZM138.873 299.197C139.916 299.197 140.59 298.447 140.59 297.27V296.355C140.59 295.184 139.916 294.434 138.873 294.434C137.824 294.434 137.15 295.184 137.15 296.355V297.27C137.15 298.441 137.824 299.197 138.873 299.197ZM155.531 298.359H156.498C156.305 299.408 155.297 300.117 153.961 300.117C152.215 300.117 151.201 299.068 151.201 297.258V296.303C151.201 294.627 152.273 293.525 153.891 293.525C155.543 293.525 156.516 294.621 156.516 296.461V297.082H152.186V297.34C152.186 298.506 152.877 299.256 153.961 299.256C154.764 299.256 155.355 298.916 155.531 298.359ZM153.885 294.381C152.824 294.381 152.186 295.107 152.186 296.326H155.531C155.531 295.113 154.91 294.381 153.885 294.381ZM163.881 295.623H162.896C162.773 294.879 162.152 294.41 161.332 294.41C160.225 294.41 159.609 295.166 159.609 296.531V297.105C159.609 298.471 160.225 299.221 161.332 299.221C162.152 299.221 162.773 298.758 162.896 298.031H163.881C163.723 299.326 162.756 300.117 161.35 300.117C159.621 300.117 158.613 299.057 158.613 297.234V296.402C158.613 294.58 159.621 293.52 161.35 293.52C162.756 293.52 163.717 294.316 163.881 295.623ZM168.65 300.117C166.969 300.117 165.896 299.021 165.896 297.305V296.344C165.896 294.627 166.969 293.531 168.65 293.531C170.332 293.531 171.404 294.627 171.404 296.344V297.305C171.404 299.021 170.332 300.117 168.65 300.117ZM168.65 294.41C167.561 294.41 166.881 295.184 166.881 296.432V297.211C166.881 298.465 167.561 299.232 168.65 299.232C169.74 299.232 170.42 298.465 170.42 297.211V296.432C170.42 295.184 169.74 294.41 168.65 294.41ZM173.754 295.359C173.754 294.258 174.691 293.52 176.092 293.52C177.416 293.52 178.312 294.182 178.43 295.242H177.469C177.352 294.686 176.818 294.346 176.074 294.346C175.266 294.346 174.744 294.721 174.744 295.301C174.744 295.787 175.072 296.062 175.869 296.238L176.766 296.443C178.002 296.725 178.564 297.264 178.564 298.184C178.564 299.355 177.586 300.117 176.08 300.117C174.639 300.117 173.684 299.443 173.572 298.354H174.586C174.732 298.939 175.295 299.279 176.115 299.279C176.982 299.279 177.533 298.887 177.533 298.277C177.533 297.773 177.223 297.504 176.414 297.322L175.471 297.105C174.322 296.842 173.754 296.262 173.754 295.359ZM181.705 302.262C181.559 302.262 181.365 302.256 181.277 302.244V301.371C181.354 301.389 181.535 301.395 181.629 301.395C182.227 301.395 182.555 301.125 182.818 300.387L182.93 300.041L180.592 293.643H181.676L183.457 298.963H183.533L185.309 293.643H186.369L183.973 300.234C183.416 301.799 182.883 302.262 181.705 302.262ZM188.59 295.359C188.59 294.258 189.527 293.52 190.928 293.52C192.252 293.52 193.148 294.182 193.266 295.242H192.305C192.188 294.686 191.654 294.346 190.91 294.346C190.102 294.346 189.58 294.721 189.58 295.301C189.58 295.787 189.908 296.062 190.705 296.238L191.602 296.443C192.838 296.725 193.4 297.264 193.4 298.184C193.4 299.355 192.422 300.117 190.916 300.117C189.475 300.117 188.52 299.443 188.408 298.354H189.422C189.568 298.939 190.131 299.279 190.951 299.279C191.818 299.279 192.369 298.887 192.369 298.277C192.369 297.773 192.059 297.504 191.25 297.322L190.307 297.105C189.158 296.842 188.59 296.262 188.59 295.359ZM197.238 291.938H198.223V293.66H200.801V294.51H198.234V298.096C198.234 298.787 198.721 299.162 199.617 299.162C199.975 299.162 200.613 299.145 200.783 299.127V299.971C200.625 300 199.852 300.029 199.547 300.029C197.971 300.029 197.238 299.432 197.238 298.107V294.51H195.545V293.66H197.238V291.938ZM207.457 298.359H208.424C208.23 299.408 207.223 300.117 205.887 300.117C204.141 300.117 203.127 299.068 203.127 297.258V296.303C203.127 294.627 204.199 293.525 205.816 293.525C207.469 293.525 208.441 294.621 208.441 296.461V297.082H204.111V297.34C204.111 298.506 204.803 299.256 205.887 299.256C206.689 299.256 207.281 298.916 207.457 298.359ZM205.811 294.381C204.75 294.381 204.111 295.107 204.111 296.326H207.457C207.457 295.113 206.836 294.381 205.811 294.381ZM216.223 295.318V300H215.326V295.611C215.326 294.838 215.045 294.434 214.512 294.434C213.955 294.434 213.615 294.92 213.615 295.711V300H212.725V295.605C212.725 294.838 212.443 294.434 211.904 294.434C211.342 294.434 210.99 294.92 210.99 295.711V300H210.094V293.643H210.984V294.539H211.09C211.248 293.9 211.705 293.525 212.303 293.525C212.9 293.525 213.322 293.895 213.457 294.521H213.562C213.727 293.912 214.236 293.525 214.875 293.525C215.76 293.525 216.223 294.141 216.223 295.318Z" fill="#002E65" fill-opacity="0.8"/>
<g filter="url(#filter0_i_4171_602)">
<rect x="24" y="329" width="416" height="28" rx="14" fill="#0071F7"/>
<path d="M205.077 341.819C205.049 341.532 204.927 341.31 204.712 341.151C204.496 340.993 204.204 340.913 203.835 340.913C203.584 340.913 203.372 340.949 203.199 341.02C203.026 341.089 202.893 341.184 202.801 341.308C202.711 341.431 202.666 341.57 202.666 341.727C202.661 341.857 202.689 341.97 202.748 342.067C202.809 342.165 202.893 342.249 203 342.32C203.107 342.388 203.23 342.449 203.369 342.501C203.509 342.55 203.658 342.593 203.817 342.629L204.47 342.785C204.787 342.856 205.079 342.951 205.344 343.069C205.609 343.187 205.839 343.333 206.033 343.506C206.227 343.679 206.377 343.882 206.484 344.116C206.593 344.351 206.648 344.62 206.651 344.923C206.648 345.368 206.535 345.754 206.31 346.08C206.087 346.405 205.765 346.657 205.344 346.837C204.925 347.014 204.419 347.103 203.827 347.103C203.24 347.103 202.729 347.013 202.293 346.833C201.86 346.653 201.522 346.387 201.278 346.034C201.036 345.679 200.91 345.24 200.898 344.717H202.386C202.402 344.96 202.472 345.164 202.595 345.327C202.721 345.488 202.888 345.61 203.096 345.693C203.307 345.774 203.545 345.814 203.81 345.814C204.07 345.814 204.296 345.776 204.488 345.7C204.682 345.625 204.832 345.519 204.939 345.384C205.045 345.249 205.099 345.094 205.099 344.919C205.099 344.756 205.05 344.618 204.953 344.507C204.858 344.396 204.719 344.301 204.534 344.223C204.352 344.145 204.128 344.074 203.863 344.01L203.071 343.811C202.458 343.662 201.974 343.429 201.619 343.112C201.263 342.794 201.087 342.367 201.089 341.83C201.087 341.389 201.204 341.004 201.441 340.675C201.68 340.346 202.008 340.089 202.425 339.905C202.841 339.72 203.315 339.628 203.845 339.628C204.385 339.628 204.856 339.72 205.259 339.905C205.663 340.089 205.978 340.346 206.203 340.675C206.428 341.004 206.544 341.386 206.551 341.819H205.077ZM210.558 341.545V342.682H207.273V341.545H210.558ZM208.019 340.239H209.531V345.324C209.531 345.464 209.553 345.572 209.595 345.651C209.638 345.726 209.697 345.78 209.773 345.81C209.851 345.841 209.941 345.857 210.043 345.857C210.114 345.857 210.185 345.851 210.256 345.839C210.327 345.825 210.381 345.814 210.419 345.807L210.657 346.933C210.581 346.956 210.475 346.983 210.338 347.014C210.2 347.047 210.033 347.067 209.837 347.075C209.472 347.089 209.153 347.04 208.878 346.929C208.606 346.818 208.394 346.645 208.242 346.411C208.091 346.176 208.016 345.88 208.019 345.523V340.239ZM213.099 347.103C212.751 347.103 212.44 347.043 212.168 346.922C211.896 346.799 211.68 346.618 211.522 346.379C211.366 346.137 211.287 345.836 211.287 345.477C211.287 345.174 211.343 344.919 211.454 344.713C211.566 344.507 211.717 344.341 211.909 344.216C212.101 344.09 212.318 343.996 212.562 343.932C212.809 343.868 213.067 343.823 213.336 343.797C213.654 343.764 213.909 343.733 214.104 343.705C214.298 343.674 214.439 343.629 214.526 343.57C214.614 343.51 214.657 343.423 214.657 343.307V343.286C214.657 343.061 214.586 342.887 214.444 342.763C214.305 342.64 214.106 342.579 213.848 342.579C213.576 342.579 213.359 342.639 213.198 342.76C213.037 342.878 212.93 343.027 212.878 343.207L211.479 343.094C211.55 342.762 211.69 342.476 211.898 342.234C212.107 341.991 212.375 341.804 212.704 341.673C213.036 341.541 213.419 341.474 213.855 341.474C214.158 341.474 214.448 341.51 214.725 341.581C215.004 341.652 215.252 341.762 215.467 341.911C215.685 342.06 215.857 342.252 215.982 342.487C216.108 342.719 216.17 342.997 216.17 343.321V347H214.736V346.244H214.693C214.605 346.414 214.488 346.564 214.341 346.695C214.195 346.822 214.018 346.923 213.812 346.996C213.606 347.067 213.368 347.103 213.099 347.103ZM213.532 346.059C213.754 346.059 213.951 346.015 214.121 345.928C214.292 345.838 214.425 345.717 214.523 345.565C214.62 345.414 214.668 345.242 214.668 345.05V344.472C214.621 344.502 214.556 344.531 214.473 344.557C214.392 344.58 214.301 344.603 214.199 344.624C214.098 344.643 213.996 344.661 213.894 344.678C213.792 344.692 213.7 344.705 213.617 344.717C213.439 344.743 213.284 344.784 213.152 344.841C213.019 344.898 212.916 344.975 212.843 345.072C212.769 345.166 212.733 345.285 212.733 345.427C212.733 345.633 212.807 345.79 212.956 345.899C213.108 346.006 213.3 346.059 213.532 346.059ZM217.344 347V341.545H218.811V342.497H218.867C218.967 342.159 219.134 341.903 219.368 341.73C219.602 341.555 219.872 341.467 220.178 341.467C220.253 341.467 220.335 341.472 220.423 341.482C220.51 341.491 220.587 341.504 220.654 341.521V342.863C220.583 342.842 220.484 342.823 220.359 342.806C220.233 342.79 220.119 342.781 220.014 342.781C219.792 342.781 219.593 342.83 219.418 342.927C219.245 343.022 219.108 343.154 219.006 343.325C218.906 343.495 218.857 343.692 218.857 343.914V347H217.344ZM224.61 341.545V342.682H221.326V341.545H224.61ZM222.071 340.239H223.584V345.324C223.584 345.464 223.605 345.572 223.648 345.651C223.691 345.726 223.75 345.78 223.826 345.81C223.904 345.841 223.994 345.857 224.096 345.857C224.167 345.857 224.238 345.851 224.309 345.839C224.38 345.825 224.434 345.814 224.472 345.807L224.71 346.933C224.634 346.956 224.528 346.983 224.39 347.014C224.253 347.047 224.086 347.067 223.89 347.075C223.525 347.089 223.205 347.04 222.931 346.929C222.658 346.818 222.447 346.645 222.295 346.411C222.144 346.176 222.069 345.88 222.071 345.523V340.239ZM230.812 341.545V342.682H227.527V341.545H230.812ZM228.273 340.239H229.785V345.324C229.785 345.464 229.807 345.572 229.849 345.651C229.892 345.726 229.951 345.78 230.027 345.81C230.105 345.841 230.195 345.857 230.297 345.857C230.368 345.857 230.439 345.851 230.51 345.839C230.581 345.825 230.635 345.814 230.673 345.807L230.911 346.933C230.835 346.956 230.729 346.983 230.591 347.014C230.454 347.047 230.287 347.067 230.091 347.075C229.726 347.089 229.407 347.04 229.132 346.929C228.86 346.818 228.648 346.645 228.496 346.411C228.345 346.176 228.27 345.88 228.273 345.523V340.239ZM235.295 344.678V341.545H236.808V347H235.355V346.009H235.298C235.175 346.329 234.971 346.586 234.684 346.78C234.4 346.974 234.053 347.071 233.644 347.071C233.279 347.071 232.958 346.988 232.681 346.822C232.404 346.657 232.188 346.421 232.031 346.116C231.878 345.81 231.799 345.445 231.797 345.018V341.545H233.31V344.749C233.312 345.071 233.399 345.325 233.569 345.512C233.74 345.699 233.968 345.793 234.254 345.793C234.437 345.793 234.607 345.751 234.766 345.668C234.924 345.583 235.052 345.458 235.149 345.292C235.249 345.126 235.297 344.921 235.295 344.678ZM240.919 341.545V342.682H237.634V341.545H240.919ZM238.38 340.239H239.893V345.324C239.893 345.464 239.914 345.572 239.957 345.651C239.999 345.726 240.058 345.78 240.134 345.81C240.212 345.841 240.302 345.857 240.404 345.857C240.475 345.857 240.546 345.851 240.617 345.839C240.688 345.825 240.743 345.814 240.781 345.807L241.018 346.933C240.943 346.956 240.836 346.983 240.699 347.014C240.562 347.047 240.395 347.067 240.198 347.075C239.834 347.089 239.514 347.04 239.239 346.929C238.967 346.818 238.755 346.645 238.604 346.411C238.452 346.176 238.378 345.88 238.38 345.523V340.239ZM244.31 347.107C243.759 347.107 243.282 346.989 242.879 346.755C242.479 346.518 242.17 346.189 241.952 345.768C241.735 345.344 241.626 344.853 241.626 344.294C241.626 343.731 241.735 343.238 241.952 342.817C242.17 342.393 242.479 342.064 242.879 341.83C243.282 341.593 243.759 341.474 244.31 341.474C244.862 341.474 245.338 341.593 245.738 341.83C246.14 342.064 246.451 342.393 246.668 342.817C246.886 343.238 246.995 343.731 246.995 344.294C246.995 344.853 246.886 345.344 246.668 345.768C246.451 346.189 246.14 346.518 245.738 346.755C245.338 346.989 244.862 347.107 244.31 347.107ZM244.317 345.935C244.568 345.935 244.778 345.864 244.946 345.722C245.114 345.577 245.241 345.381 245.326 345.132C245.414 344.884 245.457 344.601 245.457 344.283C245.457 343.966 245.414 343.683 245.326 343.435C245.241 343.186 245.114 342.99 244.946 342.845C244.778 342.701 244.568 342.629 244.317 342.629C244.064 342.629 243.851 342.701 243.678 342.845C243.508 342.99 243.379 343.186 243.291 343.435C243.206 343.683 243.163 343.966 243.163 344.283C243.163 344.601 243.206 344.884 243.291 345.132C243.379 345.381 243.508 345.577 243.678 345.722C243.851 345.864 244.064 345.935 244.317 345.935ZM247.979 347V341.545H249.445V342.497H249.502C249.602 342.159 249.768 341.903 250.003 341.73C250.237 341.555 250.507 341.467 250.812 341.467C250.888 341.467 250.97 341.472 251.058 341.482C251.145 341.491 251.222 341.504 251.288 341.521V342.863C251.217 342.842 251.119 342.823 250.994 342.806C250.868 342.79 250.753 342.781 250.649 342.781C250.427 342.781 250.228 342.83 250.053 342.927C249.88 343.022 249.742 343.154 249.641 343.325C249.541 343.495 249.491 343.692 249.491 343.914V347H247.979ZM252.07 347V341.545H253.583V347H252.07ZM252.83 340.842C252.606 340.842 252.413 340.768 252.252 340.619C252.093 340.467 252.014 340.286 252.014 340.075C252.014 339.867 252.093 339.688 252.252 339.539C252.413 339.388 252.606 339.312 252.83 339.312C253.055 339.312 253.247 339.388 253.406 339.539C253.567 339.688 253.647 339.867 253.647 340.075C253.647 340.286 253.567 340.467 253.406 340.619C253.247 340.768 253.055 340.842 252.83 340.842ZM256.35 347.103C256.002 347.103 255.692 347.043 255.42 346.922C255.148 346.799 254.932 346.618 254.774 346.379C254.618 346.137 254.539 345.836 254.539 345.477C254.539 345.174 254.595 344.919 254.706 344.713C254.818 344.507 254.969 344.341 255.161 344.216C255.353 344.09 255.57 343.996 255.814 343.932C256.06 343.868 256.319 343.823 256.588 343.797C256.906 343.764 257.161 343.733 257.355 343.705C257.55 343.674 257.69 343.629 257.778 343.57C257.866 343.51 257.909 343.423 257.909 343.307V343.286C257.909 343.061 257.838 342.887 257.696 342.763C257.557 342.64 257.358 342.579 257.1 342.579C256.828 342.579 256.611 342.639 256.45 342.76C256.289 342.878 256.182 343.027 256.13 343.207L254.731 343.094C254.802 342.762 254.942 342.476 255.15 342.234C255.359 341.991 255.627 341.804 255.956 341.673C256.288 341.541 256.671 341.474 257.107 341.474C257.41 341.474 257.7 341.51 257.977 341.581C258.256 341.652 258.504 341.762 258.719 341.911C258.937 342.06 259.109 342.252 259.234 342.487C259.359 342.719 259.422 342.997 259.422 343.321V347H257.988V346.244H257.945C257.857 346.414 257.74 346.564 257.593 346.695C257.447 346.822 257.27 346.923 257.064 346.996C256.858 347.067 256.62 347.103 256.35 347.103ZM256.784 346.059C257.006 346.059 257.203 346.015 257.373 345.928C257.544 345.838 257.677 345.717 257.775 345.565C257.872 345.414 257.92 345.242 257.92 345.05V344.472C257.873 344.502 257.808 344.531 257.725 344.557C257.644 344.58 257.553 344.603 257.451 344.624C257.35 344.643 257.248 344.661 257.146 344.678C257.044 344.692 256.952 344.705 256.869 344.717C256.691 344.743 256.536 344.784 256.404 344.841C256.271 344.898 256.168 344.975 256.095 345.072C256.021 345.166 255.985 345.285 255.985 345.427C255.985 345.633 256.059 345.79 256.208 345.899C256.36 346.006 256.552 346.059 256.784 346.059ZM262.109 339.727V347H260.596V339.727H262.109Z" fill="white"/>
</g>
</g>
<defs>
<filter id="filter0_i_4171_602" x="24" y="329" width="416" height="28" filterUnits="userSpaceOnUse" color-interpolation-filters="sRGB">
<feFlood flood-opacity="0" result="BackgroundImageFix"/>
<feBlend mode="normal" in="SourceGraphic" in2="BackgroundImageFix" result="shape"/>
<feColorMatrix in="SourceAlpha" type="matrix" values="0 0 0 0 0 0 0 0 0 0 0 0 0 0 0 0 0 0 127 0" result="hardAlpha"/>
<feMorphology radius="1" operator="erode" in="SourceAlpha" result="effect1_innerShadow_4171_602"/>
<feOffset/>
<feComposite in2="hardAlpha" operator="arithmetic" k2="-1" k3="1"/>
<feColorMatrix type="matrix" values="0 0 0 0 0 0 0 0 0 0.443137 0 0 0 0 0.968627 0 0 0 0.14 0"/>
<feBlend mode="normal" in2="shape" result="effect1_innerShadow_4171_602"/>
</filter>
<clipPath id="clip0_4171_602">
<rect width="464" height="381" rx="10" fill="white"/>
</clipPath>
<clipPath id="clip1_4171_602">
<rect width="16" height="16" fill="white" transform="translate(379 241)"/>
</clipPath>
</defs>
</svg>
