<svg width="142" height="142" viewBox="0 0 142 142" fill="none" xmlns="http://www.w3.org/2000/svg">
<path d="M88.5 97.25C88.5 92.4375 84.5625 88.5 79.75 88.5H71H62.25C57.4375 88.5 53.5 92.4375 53.5 97.25V114.75C53.5 119.562 57.4375 123.5 62.25 123.5C67.0625 123.5 71 127.438 71 132.25C71 137.062 74.9375 141 79.75 141C84.5625 141 88.5 137.062 88.5 132.25C88.5 127.438 92.4375 123.5 97.25 123.5C102.062 123.5 106 119.562 106 114.75C106 109.938 102.062 106 97.25 106C92.4375 106 88.5 102.062 88.5 97.25Z" fill="#F9FBFC" stroke="#0071F7" stroke-miterlimit="10"/>
<path d="M18.5 1H9.75C4.9375 1 1 4.9375 1 9.75C1 14.5625 4.9375 18.5 9.75 18.5C14.5625 18.5 18.5 22.4375 18.5 27.25C18.5 32.0625 22.4375 36 27.25 36C32.0625 36 36 32.0625 36 27.25V18.5V9.75C36 4.9375 32.0625 1 27.25 1H18.5Z" fill="#F9FBFC" stroke="#0071F7" stroke-miterlimit="10"/>
<path d="M123.5 1H114.75C109.938 1 106 4.9375 106 9.75C106 14.5625 109.938 18.5 114.75 18.5C119.562 18.5 123.5 22.4375 123.5 27.25C123.5 32.0625 127.438 36 132.25 36C137.062 36 141 32.0625 141 27.25V18.5V9.75C141 4.9375 137.062 1 132.25 1H123.5Z" fill="#F9FBFC" stroke="#0071F7" stroke-miterlimit="10"/>
<path d="M141 123.5V114.75C141 109.938 137.062 106 132.25 106C127.438 106 123.5 109.938 123.5 114.75C123.5 119.562 119.562 123.5 114.75 123.5C109.938 123.5 106 127.438 106 132.25C106 137.062 109.938 141 114.75 141H123.5H132.25C137.062 141 141 137.062 141 132.25V123.5Z" fill="#F9FBFC" stroke="#0071F7" stroke-miterlimit="10"/>
<path d="M44.75 123.5C39.9375 123.5 36 119.562 36 114.75V97.25C36 92.4375 32.0625 88.5 27.25 88.5C22.4375 88.5 18.5 92.4375 18.5 97.25C18.5 102.062 14.5625 106 9.75 106C4.9375 106 1 109.938 1 114.75V132.25C1 137.062 4.9375 141 9.75 141H44.75C49.5625 141 53.5 137.062 53.5 132.25C53.5 127.438 49.5625 123.5 44.75 123.5Z" fill="#F9FBFC" stroke="#0071F7" stroke-miterlimit="10"/>
<path d="M123.5 44.75C123.5 39.9375 119.562 36 114.75 36C109.938 36 106 39.9375 106 44.75V62.25C106 67.0625 102.062 71 97.25 71C92.4375 71 88.5 74.9375 88.5 79.75C88.5 84.5625 92.4375 88.5 97.25 88.5C102.062 88.5 106 92.4375 106 97.25C106 102.062 109.938 106 114.75 106C119.562 106 123.5 102.062 123.5 97.25C123.5 92.4375 127.438 88.5 132.25 88.5C137.062 88.5 141 84.5625 141 79.75V71V62.25C141 57.4375 137.062 53.5 132.25 53.5C127.438 53.5 123.5 49.5625 123.5 44.75Z" fill="#F9FBFC" stroke="#0071F7" stroke-miterlimit="10"/>
<path d="M88.5 18.5H79.75C74.9375 18.5 71 14.5625 71 9.75C71 4.9375 67.0625 1 62.25 1C57.4375 1 53.5 4.9375 53.5 9.75V36V44.75C53.5 49.5625 57.4375 53.5 62.25 53.5H79.75C84.5625 53.5 88.5 49.5625 88.5 44.75C88.5 39.9375 92.4375 36 97.25 36C102.062 36 106 32.0625 106 27.25C106 22.4375 102.062 18.5 97.25 18.5H88.5Z" fill="#F9FBFC" stroke="#0071F7" stroke-miterlimit="10"/>
<path d="M36 53.5H27.25C22.4375 53.5 18.5 49.5625 18.5 44.75C18.5 39.9375 14.5625 36 9.75 36C4.9375 36 1 39.9375 1 44.75V79.75C1 84.5625 4.9375 88.5 9.75 88.5C14.5625 88.5 18.5 84.5625 18.5 79.75C18.5 74.9375 22.4375 71 27.25 71C32.0625 71 36 74.9375 36 79.75C36 84.5625 39.9375 88.5 44.75 88.5C49.5625 88.5 53.5 84.5625 53.5 79.75V62.25C53.5 57.4375 49.5625 53.5 44.75 53.5H36Z" fill="#F9FBFC" stroke="#0071F7" stroke-miterlimit="10"/>
<path d="M53.5 132.25C53.5 127.438 57.4375 123.5 62.25 123.5C67.0625 123.5 71 119.562 71 114.75C71 109.938 67.0625 106 62.25 106C57.4375 106 53.5 109.938 53.5 114.75C53.5 119.562 49.5625 123.5 44.75 123.5C39.9375 123.5 36 127.438 36 132.25C36 137.062 39.9375 141 44.75 141C49.5625 141 53.5 137.062 53.5 132.25Z" fill="black" stroke="black" stroke-miterlimit="10"/>
<path d="M27.25 88.5C22.4375 88.5 18.5 84.5625 18.5 79.75C18.5 74.9375 14.5625 71 9.75 71C4.9375 71 1 74.9375 1 79.75C1 84.5625 4.9375 88.5 9.75 88.5C14.5625 88.5 18.5 92.4375 18.5 97.25C18.5 102.062 22.4375 106 27.25 106C32.0625 106 36 102.062 36 97.25C36 92.4375 32.0625 88.5 27.25 88.5Z" fill="black" stroke="black" stroke-miterlimit="10"/>
<path d="M18.5 27.25C18.5 32.0625 14.5625 36 9.75 36C4.9375 36 1 39.9375 1 44.75C1 49.5625 4.9375 53.5 9.75 53.5C14.5625 53.5 18.5 49.5625 18.5 44.75C18.5 39.9375 22.4375 36 27.25 36C32.0625 36 36 32.0625 36 27.25C36 22.4375 32.0625 18.5 27.25 18.5C22.4375 18.5 18.5 22.4375 18.5 27.25Z" fill="black" stroke="black" stroke-miterlimit="10"/>
<path d="M53.5 62.25C53.5 57.4375 57.4375 53.5 62.25 53.5C67.0625 53.5 71 49.5625 71 44.75C71 39.9375 67.0625 36 62.25 36C57.4375 36 53.5 39.9375 53.5 44.75C53.5 49.5625 49.5625 53.5 44.75 53.5C39.9375 53.5 36 57.4375 36 62.25C36 67.0625 39.9375 71 44.75 71C49.5625 71 53.5 67.0625 53.5 62.25Z" fill="black" stroke="black" stroke-miterlimit="10"/>
<path d="M106 97.25C106 102.062 102.062 106 97.25 106C92.4375 106 88.5 109.938 88.5 114.75C88.5 119.562 92.4375 123.5 97.25 123.5C102.062 123.5 106 119.562 106 114.75C106 109.938 109.938 106 114.75 106C119.562 106 123.5 102.062 123.5 97.25C123.5 92.4375 119.562 88.5 114.75 88.5C109.938 88.5 106 92.4375 106 97.25Z" fill="black" stroke="black" stroke-miterlimit="10"/>
<path d="M123.5 44.75C123.5 39.9375 127.438 36 132.25 36C137.062 36 141 32.0625 141 27.25C141 22.4375 137.062 18.5 132.25 18.5C127.438 18.5 123.5 22.4375 123.5 27.25C123.5 32.0625 119.562 36 114.75 36C109.938 36 106 39.9375 106 44.75C106 49.5625 109.938 53.5 114.75 53.5C119.562 53.5 123.5 49.5625 123.5 44.75Z" fill="black" stroke="black" stroke-miterlimit="10"/>
</svg>
