<svg width="61" height="13" viewBox="0 0 61 13" fill="none" xmlns="http://www.w3.org/2000/svg">
<path d="M15.5686 10.3994L18.7047 1.59424H20.1311L23.2668 10.3994H21.9936L21.2863 8.3547H17.5608L16.8418 10.3994H15.5686ZM17.9266 7.25537H20.8974L19.2471 2.45692H19.5891L17.9266 7.25537Z" fill="white"/>
<path d="M26.2175 12.9996C25.7617 12.9996 25.3411 12.9287 24.956 12.7868C24.5789 12.645 24.2525 12.4478 23.9775 12.1961C23.7025 11.9439 23.4941 11.6523 23.3526 11.3216L24.4136 10.837C24.5237 11.1366 24.7317 11.3888 25.0385 11.5935C25.3449 11.8063 25.7303 11.9128 26.1937 11.9128C26.5553 11.9128 26.8813 11.8419 27.1722 11.7001C27.4631 11.5663 27.695 11.3653 27.8678 11.0976C28.0407 10.8295 28.1273 10.5068 28.1273 10.1283V8.69835L28.3278 8.91108C28.1077 9.34452 27.7933 9.67515 27.3848 9.90383C26.9763 10.1325 26.5243 10.2466 26.0292 10.2466C25.4319 10.2466 24.8974 10.1048 24.4257 9.82117C23.9541 9.53753 23.5849 9.15528 23.3174 8.67485C23.05 8.194 22.9165 7.6544 22.9165 7.05564C22.9165 6.45689 23.05 5.92107 23.3174 5.44819C23.5849 4.96734 23.9503 4.58928 24.414 4.31361C24.8857 4.02997 25.4202 3.88815 26.0175 3.88815C26.5126 3.88815 26.9604 3.9985 27.3614 4.2192C27.7624 4.43991 28.0846 4.75083 28.3282 5.1528L28.1633 5.44819V4.02997H29.2599V10.1283C29.2599 10.6797 29.1302 11.1723 28.8707 11.6057C28.6112 12.0391 28.25 12.3777 27.7862 12.6219C27.3304 12.8741 26.8077 13 26.2184 13L26.2175 12.9996ZM26.1351 9.14647C26.5122 9.14647 26.8462 9.05584 27.1371 8.87457C27.4359 8.68534 27.6753 8.43316 27.8561 8.11805C28.0369 7.80294 28.1273 7.45216 28.1273 7.06613C28.1273 6.68011 28.0369 6.32933 27.8561 6.01422C27.6753 5.6991 27.4355 5.44693 27.1371 5.25769C26.8382 5.06846 26.5042 4.97405 26.1351 4.97405C25.7659 4.97405 25.4043 5.06846 25.0975 5.25769C24.7911 5.44693 24.5475 5.6991 24.3667 6.01422C24.1939 6.32136 24.1072 6.67214 24.1072 7.06613C24.1072 7.46013 24.1939 7.80294 24.3667 8.11805C24.5475 8.43316 24.7874 8.68534 25.0858 8.87457C25.3922 9.05584 25.7421 9.14647 26.1351 9.14647Z" fill="white"/>
<path d="M33.1519 12.9996C32.6961 12.9996 32.2755 12.9287 31.8904 12.7868C31.5133 12.645 31.1869 12.4478 30.9119 12.1961C30.6369 11.9439 30.4285 11.6523 30.287 11.3216L31.348 10.837C31.4581 11.1366 31.6661 11.3888 31.9729 11.5935C32.2793 11.8063 32.6648 11.9128 33.1281 11.9128C33.4897 11.9128 33.8157 11.8419 34.1066 11.7001C34.3975 11.5663 34.6294 11.3653 34.8022 11.0976C34.9751 10.8295 35.0617 10.5068 35.0617 10.1283V8.69835L35.2622 8.91108C35.0421 9.34452 34.7277 9.67515 34.3192 9.90383C33.9108 10.1325 33.4587 10.2466 32.9636 10.2466C32.3663 10.2466 31.8319 10.1048 31.3602 9.82117C30.8885 9.53753 30.5193 9.15528 30.2519 8.67485C29.9844 8.194 29.8509 7.6544 29.8509 7.05564C29.8509 6.45689 29.9844 5.92107 30.2519 5.44819C30.5193 4.96734 30.8847 4.58928 31.3484 4.31361C31.8201 4.02997 32.3546 3.88815 32.9519 3.88815C33.447 3.88815 33.8948 3.9985 34.2958 4.2192C34.6968 4.43991 35.0191 4.75083 35.2626 5.1528L35.0977 5.44819V4.02997H36.1943V10.1283C36.1943 10.6797 36.0646 11.1723 35.8055 11.6057C35.546 12.0391 35.1844 12.3777 34.7211 12.6219C34.2653 12.8741 33.7425 13 33.1532 13L33.1519 12.9996ZM33.0695 9.14647C33.4466 9.14647 33.7806 9.05584 34.0715 8.87457C34.3703 8.68534 34.6097 8.43316 34.7905 8.11805C34.9713 7.80294 35.0617 7.45216 35.0617 7.06613C35.0617 6.68011 34.9713 6.32933 34.7905 6.01422C34.6097 5.6991 34.3699 5.44693 34.0715 5.25769C33.7726 5.06846 33.4386 4.97405 33.0695 4.97405C32.7003 4.97405 32.3387 5.06846 32.0319 5.25769C31.7255 5.44693 31.4815 5.6991 31.3011 6.01422C31.1283 6.32136 31.0416 6.67214 31.0416 7.06613C31.0416 7.46013 31.1283 7.80294 31.3011 8.11805C31.4819 8.43316 31.7218 8.68534 32.0202 8.87457C32.3266 9.05584 32.6765 9.14647 33.0695 9.14647Z" fill="white"/>
<path d="M37.0448 10.3994V1.45242H38.1765V10.3994H37.0448Z" fill="white"/>
<path d="M40.9033 10.5412C40.4789 10.5412 40.1056 10.4665 39.7833 10.3167C39.469 10.1589 39.2212 9.94621 39.0408 9.67851C38.86 9.40284 38.7696 9.08773 38.7696 8.73317C38.7696 8.37862 38.8403 8.087 38.9818 7.81133C39.1312 7.53566 39.3631 7.3032 39.6774 7.11397C39.9918 6.92473 40.3848 6.79088 40.8565 6.712L43.1907 6.33395V7.27929L41.1038 7.63384C40.7029 7.69678 40.4124 7.82308 40.2316 8.01189C40.0508 8.19316 39.9604 8.41764 39.9604 8.68576C39.9604 8.95388 40.0625 9.16242 40.2667 9.33571C40.471 9.509 40.7305 9.59585 41.0448 9.59585C41.4378 9.59585 41.7798 9.51319 42.0706 9.34787C42.3615 9.17458 42.5892 8.9459 42.7545 8.66226C42.9195 8.37064 43.0019 8.05175 43.0019 7.70475V6.0738C43.0019 5.73519 42.8763 5.4591 42.6248 5.24636C42.3733 5.02566 42.043 4.91531 41.6345 4.91531C41.2729 4.91531 40.9506 5.00972 40.6677 5.19895C40.3927 5.38819 40.1885 5.63239 40.0545 5.93156L39.0877 5.42343C39.2057 5.13182 39.3941 4.87209 39.6536 4.64341C39.9131 4.40718 40.2157 4.22172 40.5614 4.08787C40.9071 3.95402 41.2725 3.88689 41.658 3.88689C42.1452 3.88689 42.5737 3.9813 42.9429 4.17053C43.3204 4.35179 43.6113 4.60775 43.8156 4.9388C44.0278 5.26986 44.1336 5.64791 44.1336 6.07338V10.399H43.0375V9.19346L43.238 9.27612C43.112 9.52033 42.9312 9.74103 42.6955 9.93782C42.4674 10.1271 42.2004 10.2764 41.894 10.3868C41.5952 10.4892 41.2654 10.5404 40.9038 10.5404L40.9033 10.5412Z" fill="white"/>
<path d="M45.3616 12.9996C45.2202 12.9996 45.0749 12.9878 44.9255 12.9639C44.7841 12.9404 44.6505 12.901 44.5246 12.8456V11.8411C44.6112 11.857 44.7171 11.8726 44.8431 11.8885C44.9766 11.912 45.1063 11.9237 45.2319 11.9237C45.6094 11.9237 45.8924 11.8411 46.0807 11.6758C46.2695 11.518 46.4465 11.2465 46.6114 10.8601L47.0241 9.90257L47.0007 10.8836L44.2772 4.02871H45.5031L47.6017 9.45361H47.2246L49.3232 4.02871H50.5608L47.708 11.1437C47.5665 11.4903 47.3895 11.8054 47.1773 12.0891C46.973 12.3727 46.7215 12.5934 46.4227 12.7508C46.1242 12.9161 45.7706 12.9996 45.3616 12.9996Z" fill="white"/>
<path d="M53.519 10.5412C52.9059 10.5412 52.3559 10.3956 51.8683 10.104C51.3891 9.81236 51.012 9.41459 50.7366 8.91024C50.4616 8.39792 50.3243 7.82685 50.3243 7.19663C50.3243 6.5664 50.4578 5.99114 50.7248 5.49476C50.9998 4.99839 51.3694 4.60816 51.8331 4.32452C52.3048 4.0329 52.8351 3.88731 53.4249 3.88731C53.8961 3.88731 54.3126 3.97416 54.6742 4.14745C55.0438 4.31277 55.3581 4.54145 55.6176 4.83307C55.8767 5.11671 56.0734 5.44357 56.2069 5.81407C56.3404 6.1766 56.4074 6.55465 56.4074 6.94865C56.4074 7.04306 56.4032 7.14586 56.3957 7.25579C56.3877 7.35817 56.3718 7.45677 56.3484 7.55118H51.161V6.59367H55.7001L55.1576 7.01914C55.2284 6.60962 55.189 6.24709 55.0396 5.93198C54.8981 5.60889 54.6859 5.35672 54.403 5.17545C54.1201 4.98622 53.794 4.89181 53.4249 4.89181C53.0557 4.89181 52.7171 4.98622 52.4107 5.17545C52.1123 5.35672 51.8804 5.62064 51.7151 5.96722C51.5502 6.31381 51.4832 6.72752 51.5146 7.20837C51.4832 7.67328 51.554 8.07903 51.7268 8.42561C51.9001 8.76422 52.1475 9.03234 52.4698 9.22913C52.792 9.41836 53.1457 9.51277 53.5308 9.51277C53.9472 9.51277 54.3009 9.41836 54.5918 9.22913C54.8826 9.03234 55.1145 8.78394 55.2874 8.48435L56.2304 8.95723C56.1048 9.24885 55.9081 9.51655 55.641 9.76075C55.3815 9.99698 55.0714 10.1862 54.7098 10.328C54.3482 10.4699 53.9514 10.5412 53.519 10.5412Z" fill="white"/>
<path d="M56.9996 4.02913H58.0962V5.21112L57.9782 5.0458C58.1276 4.6753 58.3557 4.39963 58.6621 4.21836C58.9764 4.0371 59.3497 3.94647 59.7821 3.94647H60.1831V5.02188H59.6289C59.1807 5.02188 58.8195 5.16371 58.5441 5.44735C58.2691 5.72302 58.1318 6.11324 58.1318 6.61759V10.3998H56.9996V4.02913Z" fill="white"/>
<path d="M8.23444 6.60584L8.20472 6.56724C7.86947 6.16653 7.86947 5.58246 8.20472 5.18175L8.2357 5.14189L12.3638 1.00345C12.5923 0.774356 12.5923 0.401339 12.3638 0.171823C12.1353 -0.0572743 11.7632 -0.0572743 11.5346 0.171823L7.40531 4.31151L7.36722 4.34089C6.96751 4.67698 6.3849 4.67698 5.98519 4.34089L5.94669 4.31067L1.81693 0.172242C1.70644 0.0614701 1.55911 0.000209521 1.40216 0.000209521C1.2452 0.000209521 1.09829 0.0614701 0.987799 0.172242C0.759275 0.401339 0.759275 0.774356 0.987799 1.00387L5.1163 5.14273L5.14685 5.18217C5.48211 5.58288 5.48211 6.16695 5.14685 6.56766L5.11756 6.60584L0.987799 10.7451C0.759275 10.9742 0.759275 11.3472 0.987799 11.5767C1.09871 11.6879 1.24562 11.7488 1.40257 11.7488C1.55953 11.7488 1.70644 11.6875 1.81735 11.5767L5.94501 7.43873L5.98519 7.40768C6.3849 7.07159 6.96751 7.07159 7.36722 7.40768L7.40656 7.43831L11.5346 11.5767C11.6456 11.6879 11.7929 11.7488 11.9494 11.7488C12.106 11.7488 12.2533 11.6875 12.3642 11.5767C12.5927 11.3472 12.5927 10.9746 12.3642 10.7451L8.23528 6.60584H8.23444Z" fill="white"/>
<path d="M7.24124 0.987089C7.24124 0.673785 6.98789 0.419802 6.67537 0.419802C6.36285 0.419802 6.1095 0.673785 6.1095 0.987089V2.78924C6.1095 3.10254 6.36285 3.35652 6.67537 3.35652C6.98789 3.35652 7.24124 3.10254 7.24124 2.78924V0.987089Z" fill="white"/>
<path d="M7.24124 8.95933C7.24124 8.64603 6.98789 8.39204 6.67537 8.39204C6.36285 8.39204 6.1095 8.64603 6.1095 8.95933V10.7615C6.1095 11.0748 6.36285 11.3288 6.67537 11.3288C6.98789 11.3288 7.24124 11.0748 7.24124 10.7615V8.95933Z" fill="white"/>
<path d="M11.5506 6.44178C11.8631 6.44178 12.1164 6.1878 12.1164 5.87449C12.1164 5.56119 11.8631 5.3072 11.5506 5.3072H9.75291C9.44039 5.3072 9.18704 5.56119 9.18704 5.87449C9.18704 6.1878 9.44039 6.44178 9.75291 6.44178H11.5506Z" fill="white"/>
<path d="M3.59825 6.44178C3.91077 6.44178 4.16412 6.1878 4.16412 5.87449C4.16412 5.56119 3.91077 5.3072 3.59825 5.3072H1.80061C1.48809 5.3072 1.23474 5.56119 1.23474 5.87449C1.23474 6.1878 1.48809 6.44178 1.80061 6.44178H3.59825Z" fill="white"/>
</svg>
