<svg width="122" height="122" viewBox="0 0 122 122" fill="none" xmlns="http://www.w3.org/2000/svg">
<path d="M72.0674 49.9333C65.9341 43.8 65.9341 33.9 72.0674 27.7666C78.2007 21.6333 78.2007 11.7333 72.0674 5.6C65.9341 -0.533332 56.0341 -0.533332 49.9008 5.6C43.7674 11.7333 43.7674 21.6333 49.9008 27.7666C56.0341 33.9 56.0341 43.8 49.9008 49.9333C43.7674 56.0666 43.7674 65.9666 49.9008 72.0999C56.0341 78.2333 65.9341 78.2333 72.0674 72.0999C78.2007 65.9666 78.2007 56.0666 72.0674 49.9333Z" fill="#F9FBFC" stroke="#0071F7" stroke-miterlimit="10"/>
<path d="M61 45.3333C52.3333 45.3333 45.3333 38.3 45.3333 29.6667C45.3333 21 38.3333 14 29.6667 14C21 14 14 21 14 29.6667C14 38.3333 21.0333 45.3333 29.6667 45.3333C38.3333 45.3333 45.3333 52.3666 45.3333 61C45.3333 69.6666 52.3666 76.6666 61 76.6666C69.6666 76.6666 76.6666 69.6333 76.6666 61C76.6666 52.3333 69.6666 45.3333 61 45.3333Z" fill="#F9FBFC" stroke="#0071F7" stroke-miterlimit="10"/>
<path d="M49.9333 49.933C43.7999 56.0663 33.9 56.0663 27.7666 49.933C21.6333 43.7997 11.7333 43.7997 5.59999 49.933C-0.533332 56.0663 -0.533332 65.9663 5.59999 72.0996C11.7333 78.233 21.6333 78.233 27.7666 72.0996C33.9 65.9663 43.7999 65.9663 49.9333 72.0996C56.0666 78.233 65.9666 78.233 72.0999 72.0996C78.2332 65.9663 78.2332 56.0663 72.0999 49.933C65.9666 43.7997 56.0666 43.7997 49.9333 49.933Z" fill="#F9FBFC" stroke="#0071F7" stroke-miterlimit="10"/>
<path d="M45.3333 60.9997C45.3333 69.6663 38.3 76.6663 29.6667 76.6663C21 76.6663 14 83.6663 14 92.333C14 101 21 108 29.6667 108C38.3333 108 45.3333 100.966 45.3333 92.333C45.3333 83.6663 52.3666 76.6663 61 76.6663C69.6666 76.6663 76.6666 69.633 76.6666 60.9997C76.6666 52.333 69.6333 45.333 61 45.333C52.3333 45.333 45.3333 52.333 45.3333 60.9997Z" fill="#F9FBFC" stroke="#0071F7" stroke-miterlimit="10"/>
<path d="M49.934 72.0996C56.0673 78.233 56.0673 88.133 49.934 94.2663C43.8007 100.4 43.8007 110.3 49.934 116.433C56.0673 122.566 65.9673 122.566 72.1006 116.433C78.234 110.3 78.234 100.4 72.1006 94.2663C65.9673 88.133 65.9673 78.233 72.1006 72.0996C78.234 65.9663 78.234 56.0663 72.1006 49.933C65.9673 43.7997 56.0673 43.7997 49.934 49.933C43.8007 56.0663 43.8007 65.9663 49.934 72.0996Z" fill="#F9FBFC" stroke="#0071F7" stroke-miterlimit="10"/>
<path d="M61.0006 76.6663C69.6673 76.6663 76.6673 83.6996 76.6673 92.333C76.6673 101 83.6673 108 92.3339 108C101.001 108 108.001 101 108.001 92.333C108.001 83.6663 100.967 76.6663 92.3339 76.6663C83.6673 76.6663 76.6673 69.633 76.6673 60.9997C76.6673 52.333 69.634 45.333 61.0006 45.333C52.334 45.333 45.334 52.3663 45.334 60.9997C45.334 69.6663 52.334 76.6663 61.0006 76.6663Z" fill="#F9FBFC" stroke="#0071F7" stroke-miterlimit="10"/>
<path d="M72.0674 72.0996C78.2007 65.9663 88.1007 65.9663 94.2341 72.0996C100.367 78.233 110.267 78.233 116.401 72.0996C122.534 65.9663 122.534 56.0663 116.401 49.933C110.267 43.7997 100.367 43.7997 94.2341 49.933C88.1007 56.0663 78.2007 56.0663 72.0674 49.933C65.9341 43.7997 56.0341 43.7997 49.9008 49.933C43.7674 56.0663 43.7674 65.9663 49.9008 72.0996C56.0341 78.233 65.9341 78.233 72.0674 72.0996Z" fill="#F9FBFC" stroke="#0071F7" stroke-miterlimit="10"/>
<path d="M76.6673 60.9999C76.6673 52.3333 83.7006 45.3333 92.3339 45.3333C101.001 45.3333 108.001 38.3333 108.001 29.6666C108.001 21 101.001 14 92.3339 14C83.6673 14 76.6673 21.0333 76.6673 29.6666C76.6673 38.3333 69.634 45.3333 61.0006 45.3333C52.334 45.3333 45.334 52.3666 45.334 60.9999C45.334 69.6666 52.3673 76.6666 61.0006 76.6666C69.6673 76.6666 76.6673 69.6666 76.6673 60.9999Z" fill="black"/>
</svg>
