<?xml version="1.0" encoding="utf-8"?>
<svg width="122" height="122" viewBox="0 0 122 122" fill="none" xmlns="http://www.w3.org/2000/svg">
  <path d="M 81.786 92.505 C 87.353 92.505 91.851 97.003 91.851 102.57 C 91.851 108.137 96.349 112.635 101.916 112.635 C 107.484 112.635 111.981 108.137 111.981 102.57 C 111.981 97.003 107.484 92.505 101.916 92.505 C 96.349 92.505 91.851 88.007 91.851 82.44 C 91.851 76.873 87.353 72.375 81.786 72.375 C 76.219 72.375 71.721 76.873 71.721 82.44 C 71.721 88.007 76.219 92.505 81.786 92.505 Z" fill="black" stroke="#0071F7" stroke-miterlimit="10" style=""/>
  <path d="M 91.851 22.051 C 91.851 27.618 87.353 32.116 81.786 32.116 C 76.219 32.116 71.721 36.613 71.721 42.18 C 71.721 47.748 76.219 52.245 81.786 52.245 C 87.353 52.245 91.851 47.748 91.851 42.18 C 91.851 36.613 96.349 32.116 101.916 32.116 C 107.484 32.116 111.981 27.618 111.981 22.051 C 111.981 16.484 107.484 11.986 101.916 11.986 C 96.349 11.986 91.851 16.484 91.851 22.051 Z" fill="black" stroke="#0071F7" stroke-miterlimit="10" style=""/>
  <path d="M 41.527 32.116 C 35.96 32.116 31.462 27.618 31.462 22.051 C 31.462 16.484 26.964 11.986 21.397 11.986 C 15.83 11.986 11.332 16.484 11.332 22.051 C 11.332 27.618 15.83 32.116 21.397 32.116 C 26.964 32.116 31.462 36.613 31.462 42.18 C 31.462 47.748 35.96 52.245 41.527 52.245 C 47.094 52.245 51.592 47.748 51.592 42.18 C 51.592 36.613 47.094 32.116 41.527 32.116 Z" fill="black" stroke="#0071F7" stroke-miterlimit="10" style=""/>
  <path d="M 31.462 82.44 C 31.462 88.007 26.964 92.505 21.397 92.505 C 15.83 92.505 11.332 97.003 11.332 102.57 C 11.332 108.137 15.83 112.635 21.397 112.635 C 26.964 112.635 31.462 108.137 31.462 102.57 C 31.462 97.003 35.96 92.505 41.527 92.505 C 47.094 92.505 51.592 88.007 51.592 82.44 C 51.592 76.873 47.094 72.375 41.527 72.375 C 35.96 72.375 31.462 76.873 31.462 82.44 Z" fill="black" stroke="#0071F7" stroke-miterlimit="10" style=""/>
  <path d="M 91.851 22.051 C 91.851 16.484 87.353 11.986 81.786 11.986 L 41.527 11.986 C 35.96 11.986 31.462 16.484 31.462 22.051 C 31.462 27.618 35.96 32.116 41.527 32.116 C 47.094 32.116 51.592 36.613 51.592 42.18 C 51.592 47.748 56.089 52.245 61.657 52.245 C 67.224 52.245 71.721 47.748 71.721 42.18 C 71.721 36.613 76.219 32.116 81.786 32.116 C 87.353 32.116 91.851 27.618 91.851 22.051 Z" fill="#F7FAFE" stroke="#0071F7" stroke-miterlimit="10" style=""/>
  <path d="M 101.916 92.505 C 107.484 92.505 111.981 88.007 111.981 82.44 L 111.981 42.18 C 111.981 36.613 107.484 32.116 101.916 32.116 C 96.349 32.116 91.851 36.613 91.851 42.18 C 91.851 47.748 87.353 52.245 81.786 52.245 C 76.219 52.245 71.721 56.743 71.721 62.31 C 71.721 67.877 76.219 72.375 81.786 72.375 C 87.353 72.375 91.851 76.873 91.851 82.44 C 91.851 88.007 96.349 92.505 101.916 92.505 Z" fill="#F7FAFE" stroke="#0071F7" stroke-miterlimit="10" style=""/>
  <path d="M 31.462 102.57 C 31.462 108.137 35.96 112.635 41.527 112.635 L 81.786 112.635 C 87.353 112.635 91.851 108.137 91.851 102.57 C 91.851 97.003 87.353 92.505 81.786 92.505 C 76.219 92.505 71.721 88.007 71.721 82.44 C 71.721 76.873 67.224 72.375 61.657 72.375 C 56.089 72.375 51.592 76.873 51.592 82.44 C 51.592 88.007 47.094 92.505 41.527 92.505 C 35.96 92.505 31.462 97.003 31.462 102.57 Z" fill="#F7FAFE" stroke="#0071F7" stroke-miterlimit="10" style=""/>
  <path d="M 21.397 32.116 C 15.83 32.116 11.332 36.613 11.332 42.18 L 11.332 82.44 C 11.332 88.007 15.83 92.505 21.397 92.505 C 26.964 92.505 31.462 88.007 31.462 82.44 C 31.462 76.873 35.96 72.375 41.527 72.375 C 47.094 72.375 51.592 67.877 51.592 62.31 C 51.592 56.743 47.094 52.245 41.527 52.245 C 35.96 52.245 31.462 47.748 31.462 42.18 C 31.462 36.613 26.964 32.116 21.397 32.116 Z" fill="#F7FAFE" stroke="#0071F7" stroke-miterlimit="10" style=""/>
  <path d="M 81.786 72.375 C 76.219 72.375 71.721 67.877 71.721 62.31 C 71.721 56.743 67.224 52.245 61.657 52.245 C 56.089 52.245 51.592 56.743 51.592 62.31 C 51.592 67.877 56.089 72.375 61.657 72.375 C 67.224 72.375 71.721 76.873 71.721 82.44 C 71.721 88.007 76.219 92.505 81.786 92.505 C 87.353 92.505 91.851 88.007 91.851 82.44 C 91.851 76.873 87.353 72.375 81.786 72.375 Z" fill="black" style=""/>
  <path d="M 51.592 62.31 C 51.592 67.877 47.094 72.375 41.527 72.375 C 35.96 72.375 31.462 76.873 31.462 82.44 C 31.462 88.007 35.96 92.505 41.527 92.505 C 47.094 92.505 51.592 88.007 51.592 82.44 C 51.592 76.873 56.089 72.375 61.657 72.375 C 67.224 72.375 71.721 67.877 71.721 62.31 C 71.721 56.743 67.224 52.245 61.657 52.245 C 56.089 52.245 51.592 56.743 51.592 62.31 Z" fill="black" style=""/>
  <path d="M 61.657 52.245 C 56.089 52.245 51.592 47.748 51.592 42.18 C 51.592 36.613 47.094 32.116 41.527 32.116 C 35.96 32.116 31.462 36.613 31.462 42.18 C 31.462 47.748 35.96 52.245 41.527 52.245 C 47.094 52.245 51.592 56.743 51.592 62.31 C 51.592 67.877 56.089 72.375 61.657 72.375 C 67.224 72.375 71.721 67.877 71.721 62.31 C 71.721 56.743 67.224 52.245 61.657 52.245 Z" fill="black" style=""/>
  <path d="M 71.721 42.18 C 71.721 47.748 67.224 52.245 61.657 52.245 C 56.089 52.245 51.592 56.743 51.592 62.31 C 51.592 67.877 56.089 72.375 61.657 72.375 C 67.224 72.375 71.721 67.877 71.721 62.31 C 71.721 56.743 76.219 52.245 81.786 52.245 C 87.353 52.245 91.851 47.748 91.851 42.18 C 91.851 36.613 87.353 32.116 81.786 32.116 C 76.219 32.116 71.721 36.613 71.721 42.18 Z" fill="black" style=""/>
</svg>