<?xml version="1.0" encoding="utf-8"?>
<svg width="83" height="122" viewBox="0 0 85 122" fill="none" xmlns="http://www.w3.org/2000/svg">
  <path d="M 53.675 77.9 C 53.675 71.763 48.684 66.772 42.547 66.772 C 36.41 66.772 31.418 71.763 31.418 77.9 C 31.418 84.037 26.427 89.029 20.29 89.029 C 14.153 89.029 9.162 94.019 9.162 100.156 C 9.162 106.293 14.153 111.285 20.29 111.285 L 64.776 111.285 C 70.913 111.285 75.904 106.293 75.904 100.156 C 75.904 94.019 70.913 89.029 64.776 89.029 C 58.639 89.029 53.648 84.037 53.648 77.9 L 53.675 77.9 Z" fill="black" style=""/>
  <path d="M 31.418 46.425 C 31.418 52.562 36.41 57.553 42.547 57.553 C 48.684 57.553 53.675 52.562 53.675 46.425 C 53.675 40.288 58.666 35.296 64.803 35.296 C 70.94 35.296 75.931 30.306 75.931 24.169 C 75.931 18.032 70.94 13.04 64.803 13.04 L 20.317 13.04 C 14.181 13.04 9.189 18.032 9.189 24.169 C 9.189 30.306 14.181 35.296 20.317 35.296 C 26.454 35.296 31.446 40.288 31.446 46.425 L 31.418 46.425 Z" stroke="#0071F7" stroke-miterlimit="10" style=""/>
  <path d="M 34.692 54.307 C 39.028 58.644 39.028 65.681 34.692 70.045 C 30.355 74.382 30.355 81.419 34.692 85.783 C 39.028 90.119 46.065 90.119 50.429 85.783 C 54.766 81.446 54.766 74.409 50.429 70.045 C 46.092 65.708 46.092 58.671 50.429 54.307 C 54.766 49.971 54.766 42.934 50.429 38.57 C 46.092 34.233 39.056 34.233 34.692 38.57 C 30.327 42.906 30.355 49.943 34.692 54.307 Z" fill="black" stroke="#F9FBFC" stroke-miterlimit="10" style=""/>
</svg>