<svg width="122" height="122" viewBox="0 0 122 122" fill="none" xmlns="http://www.w3.org/2000/svg">
<path d="M84.666 97.0166C91.3035 97.0166 96.666 102.379 96.666 109.017C96.666 115.654 102.029 121.017 108.666 121.017C115.304 121.017 120.666 115.654 120.666 109.017C120.666 102.379 115.304 97.0166 108.666 97.0166C102.029 97.0166 96.666 91.6541 96.666 85.0166C96.666 78.3791 91.3035 73.0166 84.666 73.0166C78.0285 73.0166 72.666 78.3791 72.666 85.0166C72.666 91.6541 78.0285 97.0166 84.666 97.0166Z" fill="black" stroke="#0071F7" stroke-miterlimit="10"/>
<path d="M96.666 13.0166C96.666 19.6541 91.3035 25.0166 84.666 25.0166C78.0285 25.0166 72.666 30.3791 72.666 37.0166C72.666 43.6541 78.0285 49.0166 84.666 49.0166C91.3035 49.0166 96.666 43.6541 96.666 37.0166C96.666 30.3791 102.029 25.0166 108.666 25.0166C115.304 25.0166 120.666 19.6541 120.666 13.0166C120.666 6.3791 115.304 1.0166 108.666 1.0166C102.029 1.0166 96.666 6.3791 96.666 13.0166Z" fill="black" stroke="#0071F7" stroke-miterlimit="10"/>
<path d="M36.666 25.0166C30.0285 25.0166 24.666 19.6541 24.666 13.0166C24.666 6.3791 19.3035 1.0166 12.666 1.0166C6.02852 1.0166 0.666016 6.3791 0.666016 13.0166C0.666016 19.6541 6.02852 25.0166 12.666 25.0166C19.3035 25.0166 24.666 30.3791 24.666 37.0166C24.666 43.6541 30.0285 49.0166 36.666 49.0166C43.3035 49.0166 48.666 43.6541 48.666 37.0166C48.666 30.3791 43.3035 25.0166 36.666 25.0166Z" fill="black" stroke="#0071F7" stroke-miterlimit="10"/>
<path d="M24.666 85.0166C24.666 91.6541 19.3035 97.0166 12.666 97.0166C6.02852 97.0166 0.666016 102.379 0.666016 109.017C0.666016 115.654 6.02852 121.017 12.666 121.017C19.3035 121.017 24.666 115.654 24.666 109.017C24.666 102.379 30.0285 97.0166 36.666 97.0166C43.3035 97.0166 48.666 91.6541 48.666 85.0166C48.666 78.3791 43.3035 73.0166 36.666 73.0166C30.0285 73.0166 24.666 78.3791 24.666 85.0166Z" fill="black" stroke="#0071F7" stroke-miterlimit="10"/>
<path d="M96.666 13.0166C96.666 6.3791 91.3035 1.0166 84.666 1.0166H36.666C30.0285 1.0166 24.666 6.3791 24.666 13.0166C24.666 19.6541 30.0285 25.0166 36.666 25.0166C43.3035 25.0166 48.666 30.3791 48.666 37.0166C48.666 43.6541 54.0285 49.0166 60.666 49.0166C67.3035 49.0166 72.666 43.6541 72.666 37.0166C72.666 30.3791 78.0285 25.0166 84.666 25.0166C91.3035 25.0166 96.666 19.6541 96.666 13.0166Z" fill="#F7FAFE" stroke="#0071F7" stroke-miterlimit="10"/>
<path d="M108.666 97.0166C115.304 97.0166 120.666 91.6541 120.666 85.0166V37.0166C120.666 30.3791 115.304 25.0166 108.666 25.0166C102.029 25.0166 96.666 30.3791 96.666 37.0166C96.666 43.6541 91.3035 49.0166 84.666 49.0166C78.0285 49.0166 72.666 54.3791 72.666 61.0166C72.666 67.6541 78.0285 73.0166 84.666 73.0166C91.3035 73.0166 96.666 78.3791 96.666 85.0166C96.666 91.6541 102.029 97.0166 108.666 97.0166Z" fill="#F7FAFE" stroke="#0071F7" stroke-miterlimit="10"/>
<path d="M24.666 109.017C24.666 115.654 30.0285 121.017 36.666 121.017H84.666C91.3035 121.017 96.666 115.654 96.666 109.017C96.666 102.379 91.3035 97.0166 84.666 97.0166C78.0285 97.0166 72.666 91.6541 72.666 85.0166C72.666 78.3791 67.3035 73.0166 60.666 73.0166C54.0285 73.0166 48.666 78.3791 48.666 85.0166C48.666 91.6541 43.3035 97.0166 36.666 97.0166C30.0285 97.0166 24.666 102.379 24.666 109.017Z" fill="#F7FAFE" stroke="#0071F7" stroke-miterlimit="10"/>
<path d="M12.666 25.0166C6.02852 25.0166 0.666016 30.3791 0.666016 37.0166V85.0166C0.666016 91.6541 6.02852 97.0166 12.666 97.0166C19.3035 97.0166 24.666 91.6541 24.666 85.0166C24.666 78.3791 30.0285 73.0166 36.666 73.0166C43.3035 73.0166 48.666 67.6541 48.666 61.0166C48.666 54.3791 43.3035 49.0166 36.666 49.0166C30.0285 49.0166 24.666 43.6541 24.666 37.0166C24.666 30.3791 19.3035 25.0166 12.666 25.0166Z" fill="#F7FAFE" stroke="#0071F7" stroke-miterlimit="10"/>
<path d="M84.666 73.0166C78.0285 73.0166 72.666 67.6541 72.666 61.0166C72.666 54.3791 67.3035 49.0166 60.666 49.0166C54.0285 49.0166 48.666 54.3791 48.666 61.0166C48.666 67.6541 54.0285 73.0166 60.666 73.0166C67.3035 73.0166 72.666 78.3791 72.666 85.0166C72.666 91.6541 78.0285 97.0166 84.666 97.0166C91.3035 97.0166 96.666 91.6541 96.666 85.0166C96.666 78.3791 91.3035 73.0166 84.666 73.0166Z" fill="black"/>
<path d="M48.666 61.0166C48.666 67.6541 43.3035 73.0166 36.666 73.0166C30.0285 73.0166 24.666 78.3791 24.666 85.0166C24.666 91.6541 30.0285 97.0166 36.666 97.0166C43.3035 97.0166 48.666 91.6541 48.666 85.0166C48.666 78.3791 54.0285 73.0166 60.666 73.0166C67.3035 73.0166 72.666 67.6541 72.666 61.0166C72.666 54.3791 67.3035 49.0166 60.666 49.0166C54.0285 49.0166 48.666 54.3791 48.666 61.0166Z" fill="black"/>
<path d="M60.666 49.0166C54.0285 49.0166 48.666 43.6541 48.666 37.0166C48.666 30.3791 43.3035 25.0166 36.666 25.0166C30.0285 25.0166 24.666 30.3791 24.666 37.0166C24.666 43.6541 30.0285 49.0166 36.666 49.0166C43.3035 49.0166 48.666 54.3791 48.666 61.0166C48.666 67.6541 54.0285 73.0166 60.666 73.0166C67.3035 73.0166 72.666 67.6541 72.666 61.0166C72.666 54.3791 67.3035 49.0166 60.666 49.0166Z" fill="black"/>
<path d="M72.666 37.0166C72.666 43.6541 67.3035 49.0166 60.666 49.0166C54.0285 49.0166 48.666 54.3791 48.666 61.0166C48.666 67.6541 54.0285 73.0166 60.666 73.0166C67.3035 73.0166 72.666 67.6541 72.666 61.0166C72.666 54.3791 78.0285 49.0166 84.666 49.0166C91.3035 49.0166 96.666 43.6541 96.666 37.0166C96.666 30.3791 91.3035 25.0166 84.666 25.0166C78.0285 25.0166 72.666 30.3791 72.666 37.0166Z" fill="black"/>
</svg>
