<svg width="83" height="122" viewBox="0 0 83 122" fill="none" xmlns="http://www.w3.org/2000/svg">
<path d="M54.9245 80.2394C54.9245 72.7436 48.8279 66.647 41.332 66.647C33.8362 66.647 27.7396 72.7436 27.7396 80.2394C27.7396 87.7353 21.643 93.8319 14.1472 93.8319C6.65132 93.8319 0.554688 99.9285 0.554688 107.424C0.554688 114.92 6.65132 121.017 14.1472 121.017H68.4836C75.9794 121.017 82.076 114.92 82.076 107.424C82.076 99.9285 75.9794 93.8319 68.4836 93.8319C60.9878 93.8319 54.8912 87.7353 54.8912 80.2394H54.9245Z" fill="black"/>
<path d="M27.7395 41.7939C27.7395 49.2898 33.8361 55.3864 41.3319 55.3864C48.8277 55.3864 54.9244 49.2898 54.9244 41.7939C54.9244 34.2981 61.021 28.2015 68.5168 28.2015C76.0126 28.2015 82.1093 22.1049 82.1093 14.6091C82.1093 7.11323 76.0126 1.0166 68.5168 1.0166H14.1803C6.6845 1.0166 0.587891 7.11323 0.587891 14.6091C0.587891 22.1049 6.6845 28.2015 14.1803 28.2015C21.6762 28.2015 27.7728 34.2981 27.7728 41.7939H27.7395Z" stroke="#0071F7" stroke-miterlimit="10"/>
<path d="M31.7372 51.422C37.0343 56.7191 37.0343 65.3143 31.7372 70.6446C26.4402 75.9417 26.4402 84.5369 31.7372 89.8673C37.0343 95.1644 45.6295 95.1644 50.9599 89.8673C56.257 84.5702 56.257 75.975 50.9599 70.6446C45.6628 65.3476 45.6628 56.7524 50.9599 51.422C56.257 46.125 56.257 37.5297 50.9599 32.1994C45.6628 26.9023 37.0676 26.9023 31.7372 32.1994C26.4069 37.4964 26.4402 46.0916 31.7372 51.422Z" fill="black" stroke="#F9FBFC" stroke-miterlimit="10"/>
</svg>
