<svg width="142" height="142" viewBox="0 0 142 142" fill="none" xmlns="http://www.w3.org/2000/svg">
<path d="M24.34 59.352C24.34 65.7772 29.5413 71.0223 36.0103 71.0223C42.4355 71.0223 47.6806 76.2236 47.6806 82.6926C47.6806 89.1178 52.882 94.363 59.3509 94.363C65.7762 94.363 71.0214 89.1616 71.0214 82.6926V71.0223V47.7253V36.055C71.0214 29.6297 65.8199 24.3846 59.3509 24.3846C52.9257 24.3846 47.6806 19.1833 47.6806 12.7143C47.6806 6.28907 42.4792 1.04395 36.0103 1.04395H9.7848C4.97679 1.04395 1.04297 4.97777 1.04297 9.78577V36.0113C1.04297 42.4365 6.24434 47.6816 12.7133 47.6816C19.1385 47.6816 24.3837 52.883 24.3837 59.352H24.34Z" fill="#F9FBFC" stroke="#0071F7" stroke-miterlimit="10"/>
<path d="M24.3407 140.957H36.011C42.4363 140.957 47.6813 135.755 47.6813 129.286V117.616V105.946C47.6813 99.5204 42.48 94.2752 36.011 94.2752C29.5858 94.2752 24.3407 89.0738 24.3407 82.6049C24.3407 76.1796 19.1393 70.9346 12.6703 70.9346C6.24508 70.9346 1 76.1359 1 82.6049V129.243C1 135.668 6.20137 140.913 12.6703 140.913H24.3407V140.957Z" fill="#F9FBFC" stroke="#0071F7" stroke-miterlimit="10"/>
<path d="M94.2736 140.957H105.944C112.369 140.957 117.614 135.755 117.614 129.286C117.614 122.861 122.816 117.616 129.285 117.616C135.71 117.616 140.955 112.415 140.955 105.946V94.2752V82.6049C140.955 76.1796 135.753 70.9346 129.285 70.9346C122.859 70.9346 117.614 76.1359 117.614 82.6049C117.614 89.0301 112.413 94.2752 105.944 94.2752H82.6469C76.2216 94.2752 70.9766 99.4767 70.9766 105.946V129.243C70.9766 135.668 76.1779 140.913 82.6469 140.913H94.3172L94.2736 140.957Z" fill="#F9FBFC" stroke="#0071F7" stroke-miterlimit="10"/>
<path d="M82.6481 24.3844C89.0733 24.3844 94.3184 29.5858 94.3184 36.0547V59.3517C94.3184 65.777 99.5198 71.022 105.989 71.022C112.414 71.022 117.659 65.8207 117.659 59.3517C117.659 52.9265 122.86 47.6814 129.329 47.6814C135.755 47.6814 141 42.48 141 36.011V24.3407V12.6703C141 6.24508 135.798 1 129.329 1H82.6918C76.2666 1 71.0215 6.20137 71.0215 12.6703C71.0215 19.0956 76.2229 24.3407 82.6918 24.3407L82.6481 24.3844Z" fill="#F9FBFC" stroke="#0071F7" stroke-miterlimit="10"/>
<path d="M82.6477 94.3192C76.2225 94.3192 70.9774 89.1178 70.9774 82.6488C70.9774 76.2236 65.776 70.9785 59.3071 70.9785C52.8818 70.9785 47.6367 76.1799 47.6367 82.6488C47.6367 89.0741 52.8381 94.3192 59.3071 94.3192C65.7323 94.3192 70.9774 99.5205 70.9774 105.989C70.9774 112.415 76.1788 117.66 82.6477 117.66C89.073 117.66 94.3181 112.458 94.3181 105.989C94.3181 99.5642 89.1167 94.3192 82.6477 94.3192Z" fill="black" stroke="black" stroke-miterlimit="10"/>
<path d="M70.9774 12.7578C70.9774 19.183 65.776 24.4281 59.3071 24.4281C52.8818 24.4281 47.6367 29.6295 47.6367 36.0985C47.6367 42.5237 52.8381 47.7688 59.3071 47.7688C65.7323 47.7688 70.9774 42.5674 70.9774 36.0985C70.9774 29.6732 76.1788 24.4281 82.6477 24.4281C89.073 24.4281 94.3181 19.2267 94.3181 12.7578C94.3181 6.33253 89.1167 1.0874 82.6477 1.0874C76.1788 1.0874 70.9774 6.28882 70.9774 12.7578Z" fill="black" stroke="black" stroke-miterlimit="10"/>
<path d="M24.3407 59.352C24.3407 65.7772 19.1393 71.0223 12.6703 71.0223C6.24508 71.0223 1 76.2237 1 82.6926C1 89.1179 6.20137 94.363 12.6703 94.363C19.0956 94.363 24.3407 89.1616 24.3407 82.6926C24.3407 76.2674 29.5421 71.0223 36.011 71.0223C42.4363 71.0223 47.6813 65.8209 47.6813 59.352C47.6813 52.9267 42.48 47.6816 36.011 47.6816C29.5858 47.6816 24.3407 52.883 24.3407 59.352Z" fill="black" stroke="black" stroke-miterlimit="10"/>
</svg>
