<svg width="142" height="91" viewBox="0 0 142 91" fill="none" xmlns="http://www.w3.org/2000/svg">
<path d="M83.915 58.4153C91.055 51.2753 102.64 51.2753 109.78 58.4153C116.92 65.5553 128.505 65.5553 135.645 58.4153C142.785 51.2753 142.785 39.6903 135.645 32.5503C128.505 25.4103 116.92 25.4103 109.78 32.5503C102.64 39.6903 91.055 39.6903 83.915 32.5503C76.775 25.4103 65.19 25.4103 58.05 32.5503C50.91 39.6903 50.91 51.2753 58.05 58.4153C65.19 65.5553 76.775 65.5553 83.915 58.4153Z" fill="black" stroke="black" stroke-miterlimit="10"/>
<path d="M32.2197 58.4153C39.3597 51.2753 50.9446 51.2753 58.0846 58.4153C65.2246 65.5553 76.8097 65.5553 83.9497 58.4153C91.0897 51.2753 91.0897 39.6903 83.9497 32.5503C76.8097 25.4103 65.2246 25.4103 58.0846 32.5503C50.9446 39.6903 39.3597 39.6903 32.2197 32.5503C25.0797 25.4103 13.4947 25.4103 6.35468 32.5503C-0.785317 39.6903 -0.785318 51.2753 6.35468 58.4153C13.4947 65.5553 25.0796 65.5553 32.2197 58.4153Z" fill="#F9FBFC" stroke="#0071F7" stroke-miterlimit="10"/>
<path d="M58.0849 84.2801C65.2249 77.1401 76.8099 77.1401 83.9499 84.2801C91.0899 91.4201 102.675 91.4201 109.815 84.2801C116.955 77.1401 116.955 65.5551 109.815 58.4151C102.675 51.2751 91.0899 51.2751 83.9499 58.4151C76.8099 65.5551 65.2249 65.5551 58.0849 58.4151C50.9449 51.2751 39.3599 51.2751 32.2199 58.4151C25.0799 65.5551 25.0799 77.1401 32.2199 84.2801C39.3599 91.4201 50.9449 91.4201 58.0849 84.2801Z" fill="#F9FBFC" stroke="#0071F7" stroke-miterlimit="10"/>
<path d="M58.0849 32.5852C65.2249 25.4452 76.8099 25.4452 83.9499 32.5852C91.0899 39.7252 102.675 39.7252 109.815 32.5852C116.955 25.4452 116.955 13.8602 109.815 6.72024C102.675 -0.419767 91.0899 -0.419767 83.9499 6.72023C76.8099 13.8602 65.2249 13.8602 58.0849 6.72023C50.9449 -0.419769 39.3599 -0.41977 32.2199 6.72023C25.0799 13.8602 25.0799 25.4452 32.2199 32.5852C39.3599 39.7252 50.9449 39.7252 58.0849 32.5852Z" fill="#F9FBFC" stroke="#0071F7" stroke-miterlimit="10"/>
</svg>
