<svg width="120" height="120" viewBox="0 0 122 122" fill="none" xmlns="http://www.w3.org/2000/svg">
<path d="M31 16C31 24.2875 24.2875 31 16 31C7.7125 31 1 37.7125 1 46V76C1 84.2875 7.7125 91 16 91C24.2875 91 31 97.7125 31 106C31 114.287 37.7125 121 46 121C54.2875 121 61 114.287 61 106V16C61 7.7125 54.2875 1 46 1C37.7125 1 31 7.7125 31 16Z" fill="#F9FBFC" stroke="#0071F7" stroke-miterlimit="10"/>
<path d="M91 106C91 97.7125 97.7125 91 106 91C114.287 91 121 84.2875 121 76V46C121 37.7125 114.287 31 106 31C97.7125 31 91 24.2875 91 16C91 7.7125 84.2875 1 76 1C67.7125 1 61 7.7125 61 16V106C61 114.287 67.7125 121 76 121C84.2875 121 91 114.287 91 106Z" fill="#F9FBFC" stroke="#0071F7" stroke-miterlimit="10"/>
<path d="M106 61C114.288 61 121 54.2875 121 46" stroke="#0071F7" stroke-miterlimit="10"/>
<path d="M91 76C91 84.2875 97.7125 91 106 91" stroke="#0071F7" stroke-miterlimit="10"/>
<path d="M16 91C24.2875 91 31 84.2875 31 76" stroke="#0071F7" stroke-miterlimit="10"/>
<path d="M31 46C31 54.2875 37.7125 61 46 61" stroke="#0071F7" stroke-miterlimit="10"/>
<path d="M76 61C84.2875 61 91 54.2875 91 46" stroke="#0071F7" stroke-miterlimit="10"/>
<path d="M1 46C1 54.2875 7.7125 61 16 61" stroke="#0071F7" stroke-miterlimit="10"/>
<path d="M91 46C91 37.7125 97.7125 31 106 31C114.287 31 121 24.2875 121 16C121 7.7125 114.287 1 106 1C97.7125 1 91 7.7125 91 16C91 24.2875 84.2875 31 76 31C67.7125 31 61 37.7125 61 46C61 54.2875 67.7125 61 76 61C84.2875 61 91 54.2875 91 46Z" fill="black" stroke="black" stroke-miterlimit="10"/>
</svg>