<svg width="306" height="193" viewBox="0 0 306 193" fill="none" xmlns="http://www.w3.org/2000/svg">
<path d="M123 52C123 60.2875 116.288 67 108 67C99.7125 67 93 73.7125 93 82V112C93 120.287 99.7125 127 108 127C116.288 127 123 133.713 123 142C123 150.287 129.713 157 138 157C146.287 157 153 150.287 153 142V52C153 43.7125 146.287 37 138 37C129.713 37 123 43.7125 123 52Z" fill="#F9FBFC" stroke="#0071F7" stroke-miterlimit="10"/>
<path d="M183 142C183 133.713 189.713 127 198 127C206.287 127 213 120.287 213 112V82C213 73.7125 206.287 67 198 67C189.713 67 183 60.2875 183 52C183 43.7125 176.288 37 168 37C159.712 37 153 43.7125 153 52V142C153 150.287 159.712 157 168 157C176.288 157 183 150.287 183 142Z" fill="#F9FBFC" stroke="#0071F7" stroke-miterlimit="10"/>
<path d="M198 97C206.288 97 213 90.2875 213 82" stroke="#0071F7" stroke-miterlimit="10"/>
<path d="M183 112C183 120.288 189.712 127 198 127" stroke="#0071F7" stroke-miterlimit="10"/>
<path d="M108 127C116.288 127 123 120.288 123 112" stroke="#0071F7" stroke-miterlimit="10"/>
<path d="M123 82C123 90.2875 129.712 97 138 97" stroke="#0071F7" stroke-miterlimit="10"/>
<path d="M168 97C176.288 97 183 90.2875 183 82" stroke="#0071F7" stroke-miterlimit="10"/>
<path d="M93 82C93 90.2875 99.7125 97 108 97" stroke="#0071F7" stroke-miterlimit="10"/>
<path d="M183 82C183 73.7125 189.713 67 198 67C206.287 67 213 60.2875 213 52C213 43.7125 206.287 37 198 37C189.713 37 183 43.7125 183 52C183 60.2875 176.288 67 168 67C159.712 67 153 73.7125 153 82C153 90.2875 159.712 97 168 97C176.288 97 183 90.2875 183 82Z" fill="black" stroke="black" stroke-miterlimit="10"/>
</svg>
