<?xml version="1.0" encoding="utf-8"?>
<svg width="120" height="120" viewBox="0 0 122 122" fill="none" xmlns="http://www.w3.org/2000/svg">
  <path d="M 36.94 28.059 C 36.94 34.319 31.922 39.387 25.727 39.387 C 19.532 39.387 14.514 44.456 14.514 50.715 L 14.514 73.37 C 14.514 79.627 19.532 84.696 25.727 84.696 C 31.922 84.696 36.94 89.766 36.94 96.024 C 36.94 102.282 41.958 107.351 48.153 107.351 C 54.349 107.351 59.367 102.282 59.367 96.024 L 59.367 28.059 C 59.367 21.801 54.349 16.733 48.153 16.733 C 41.958 16.733 36.94 21.801 36.94 28.059 Z" fill="#F9FBFC" stroke="#0071F7" stroke-miterlimit="10" style=""/>
  <path d="M 81.793 96.024 C 81.793 89.766 86.81 84.696 93.006 84.696 C 99.201 84.696 104.219 79.627 104.219 73.37 L 104.219 50.715 C 104.219 44.456 99.201 39.387 93.006 39.387 C 86.81 39.387 81.793 34.319 81.793 28.059 C 81.793 21.801 76.774 16.733 70.58 16.733 C 64.385 16.733 59.367 21.801 59.367 28.059 L 59.367 96.024 C 59.367 102.282 64.385 107.351 70.58 107.351 C 76.774 107.351 81.793 102.282 81.793 96.024 Z" fill="#F9FBFC" stroke="#0071F7" stroke-miterlimit="10" style=""/>
  <path d="M 93.006 62.042 C 99.201 62.042 104.219 56.973 104.219 50.715" stroke="#0071F7" stroke-miterlimit="10" style=""/>
  <path d="M 81.793 73.37 C 81.793 79.627 86.81 84.696 93.006 84.696" stroke="#0071F7" stroke-miterlimit="10" style=""/>
  <path d="M 25.727 84.696 C 31.922 84.696 36.94 79.627 36.94 73.37" stroke="#0071F7" stroke-miterlimit="10" style=""/>
  <path d="M 36.94 50.715 C 36.94 56.973 41.958 62.042 48.153 62.042" stroke="#0071F7" stroke-miterlimit="10" style=""/>
  <path d="M 70.58 62.042 C 76.774 62.042 81.793 56.973 81.793 50.715" stroke="#0071F7" stroke-miterlimit="10" style=""/>
  <path d="M 14.514 50.715 C 14.514 56.973 19.532 62.042 25.727 62.042" stroke="#0071F7" stroke-miterlimit="10" style=""/>
  <path d="M 81.793 50.715 C 81.793 44.456 86.81 39.387 93.006 39.387 C 99.201 39.387 104.219 34.319 104.219 28.059 C 104.219 21.801 99.201 16.733 93.006 16.733 C 86.81 16.733 81.793 21.801 81.793 28.059 C 81.793 34.319 76.774 39.387 70.58 39.387 C 64.385 39.387 59.367 44.456 59.367 50.715 C 59.367 56.973 64.385 62.042 70.58 62.042 C 76.774 62.042 81.793 56.973 81.793 50.715 Z" fill="black" stroke="black" stroke-miterlimit="10" style=""/>
</svg>