<?xml version="1.0" encoding="utf-8"?>
<svg width="111" height="142" viewBox="0 0 111 142" fill="none" xmlns="http://www.w3.org/2000/svg">
  <path d="M 62.461 93.328 C 59.042 80.606 66.609 67.519 79.331 64.101 C 91.212 60.934 98.554 49.332 96.733 37.45 L 91.8 34.592 L 84.347 47.51 L 69.439 47.51 L 61.985 34.592 L 69.439 21.673 L 64.507 18.815 C 53.298 23.158 46.964 35.348 50.131 47.202 C 53.55 59.925 45.983 73.011 33.261 76.431 C 20.538 79.849 12.972 92.908 16.391 105.659 C 19.809 118.381 32.868 125.947 45.619 122.529 C 58.341 119.109 65.908 106.051 62.489 93.301 L 62.461 93.328 Z M 46.853 112.412 L 31.944 112.412 L 24.49 99.494 L 31.944 86.575 L 46.853 86.575 L 54.306 99.494 L 46.853 112.412 Z" fill="#F7FAFE" stroke="#0071F7" stroke-miterlimit="10" style=""/>
  <path d="M 84.32 21.702 L 69.412 21.702 L 61.957 34.592 L 69.412 47.51 L 84.32 47.51 L 91.773 34.592 L 84.32 21.702 Z" fill="black" stroke="black" stroke-miterlimit="10" style=""/>
</svg>