<svg width="306" height="194" viewBox="0 0 306 194" fill="none" xmlns="http://www.w3.org/2000/svg">
<path d="M168.8 122.793C164.221 105.754 174.354 88.2278 191.393 83.6491C207.306 79.4081 217.139 63.8706 214.7 47.9577L208.094 44.1296L198.111 61.4311H178.145L168.162 44.1296L178.145 26.8281L171.54 23C156.528 28.8172 148.046 45.1429 152.287 61.0182C156.865 78.057 146.732 95.5837 129.693 100.162C112.655 104.741 102.521 122.23 107.1 139.307C111.679 156.345 129.168 166.479 146.244 161.9C163.283 157.321 173.416 139.832 168.838 122.756L168.8 122.793ZM147.896 148.351H127.93L117.946 131.05L127.93 113.748H147.896L157.879 131.05L147.896 148.351Z" fill="#F7FAFE" stroke="#0071F7" stroke-miterlimit="10"/>
<path d="M198.074 26.8657H178.108L168.125 44.1297L178.108 61.4312H198.074L208.057 44.1297L198.074 26.8657Z" fill="black" stroke="black" stroke-miterlimit="10"/>
</svg>
