<svg width="111" height="142" viewBox="0 0 111 142" fill="none" xmlns="http://www.w3.org/2000/svg">
<path d="M63.8 100.793C59.2213 83.7544 69.3545 66.2278 86.3933 61.6491C102.306 57.4081 112.139 41.8706 109.7 25.9577L103.094 22.1296L93.1113 39.4311H73.1451L63.162 22.1296L73.1451 4.8281L66.5397 1C51.5276 6.8172 43.0457 23.1429 47.2867 39.0182C51.8654 56.057 41.7322 73.5837 24.6934 78.1624C7.65463 82.7411 -2.47854 100.23 2.10016 117.307C6.67886 134.345 24.168 144.479 41.2443 139.9C58.2831 135.321 68.4163 117.832 63.8376 100.756L63.8 100.793ZM42.8956 126.351H22.9295L12.9464 109.05L22.9295 91.7484H42.8956L52.8787 109.05L42.8956 126.351Z" fill="#F7FAFE" stroke="#0071F7" stroke-miterlimit="10"/>
<path d="M93.0742 4.86572H73.1081L63.125 22.1297L73.1081 39.4312H93.0742L103.057 22.1297L93.0742 4.86572Z" fill="black" stroke="black" stroke-miterlimit="10"/>
</svg>